Aleo-Bold Italic.ufo
<glyph name="ampersand" format="1">
  <advance width="701"/>
  <unicode hex="0026"/>
  <note>
    ampersand
  </note>
  <outline>
    <contour>
      <point x="355" y="731"/>
      <point x="326" y="726"/>
      <point x="299" y="716" type="curve" smooth="yes"/>
      <point x="272" y="706"/>
      <point x="250" y="693"/>
      <point x="230" y="676" type="curve" smooth="yes"/>
      <point x="210" y="659"/>
      <point x="194" y="641"/>
      <point x="182" y="618" type="curve" smooth="yes"/>
      <point x="170" y="596"/>
      <point x="163" y="571"/>
      <point x="160" y="546" type="curve" smooth="yes"/>
      <point x="157" y="522"/>
      <point x="158" y="499"/>
      <point x="163" y="475" type="curve" smooth="yes"/>
      <point x="168" y="451"/>
      <point x="178" y="427"/>
      <point x="193" y="402" type="curve"/>
      <point x="170" y="392"/>
      <point x="150" y="380"/>
      <point x="130" y="366" type="curve" smooth="yes"/>
      <point x="110" y="352"/>
      <point x="93" y="336"/>
      <point x="78" y="319" type="curve" smooth="yes"/>
      <point x="63" y="302"/>
      <point x="51" y="283"/>
      <point x="41" y="263" type="curve" smooth="yes"/>
      <point x="31" y="243"/>
      <point x="25" y="221"/>
      <point x="22" y="199" type="curve" smooth="yes"/>
      <point x="18" y="167"/>
      <point x="20" y="139"/>
      <point x="30" y="113" type="curve" smooth="yes"/>
      <point x="40" y="87"/>
      <point x="54" y="66"/>
      <point x="73" y="48" type="curve" smooth="yes"/>
      <point x="92" y="30"/>
      <point x="114" y="16"/>
      <point x="140" y="6" type="curve" smooth="yes"/>
      <point x="166" y="-4"/>
      <point x="192" y="-8"/>
      <point x="220" y="-8" type="curve" smooth="yes"/>
      <point x="266" y="-8"/>
      <point x="309" y="-1"/>
      <point x="350" y="14" type="curve" smooth="yes"/>
      <point x="391" y="29"/>
      <point x="429" y="49"/>
      <point x="464" y="75" type="curve"/>
      <point x="508" y="24" type="line"/>
      <point x="512" y="19"/>
      <point x="515" y="15"/>
      <point x="519" y="12" type="curve" smooth="yes"/>
      <point x="523" y="9"/>
      <point x="526" y="7"/>
      <point x="530" y="5" type="curve" smooth="yes"/>
      <point x="534" y="3"/>
      <point x="539" y="2"/>
      <point x="544" y="1" type="curve" smooth="yes"/>
      <point x="549" y="0"/>
      <point x="554" y="0"/>
      <point x="560" y="0" type="curve" smooth="yes"/>
      <point x="681" y="0" type="line"/>
      <point x="549" y="157" type="line"/>
      <point x="576" y="191"/>
      <point x="599" y="228"/>
      <point x="616" y="268" type="curve" smooth="yes"/>
      <point x="633" y="308"/>
      <point x="644" y="350"/>
      <point x="650" y="394" type="curve"/>
      <point x="573" y="394" type="line" smooth="yes"/>
      <point x="565" y="394"/>
      <point x="559" y="391"/>
      <point x="554" y="386" type="curve" smooth="yes"/>
      <point x="549" y="381"/>
      <point x="546" y="376"/>
      <point x="544" y="368" type="curve"/>
      <point x="539" y="344"/>
      <point x="532" y="320"/>
      <point x="522" y="297" type="curve" smooth="yes"/>
      <point x="512" y="274"/>
      <point x="502" y="252"/>
      <point x="488" y="231" type="curve"/>
      <point x="320" y="430" type="line"/>
      <point x="310" y="441"/>
      <point x="302" y="452"/>
      <point x="296" y="462" type="curve" smooth="yes"/>
      <point x="290" y="472"/>
      <point x="285" y="482"/>
      <point x="281" y="491" type="curve" smooth="yes"/>
      <point x="277" y="500"/>
      <point x="276" y="510"/>
      <point x="275" y="519" type="curve" smooth="yes"/>
      <point x="274" y="528"/>
      <point x="274" y="538"/>
      <point x="275" y="548" type="curve" smooth="yes"/>
      <point x="276" y="560"/>
      <point x="280" y="571"/>
      <point x="285" y="582" type="curve" smooth="yes"/>
      <point x="290" y="593"/>
      <point x="297" y="602"/>
      <point x="306" y="610" type="curve" smooth="yes"/>
      <point x="315" y="618"/>
      <point x="325" y="625"/>
      <point x="337" y="630" type="curve" smooth="yes"/>
      <point x="349" y="635"/>
      <point x="361" y="637"/>
      <point x="375" y="637" type="curve" smooth="yes"/>
      <point x="387" y="637"/>
      <point x="396" y="636"/>
      <point x="405" y="632" type="curve" smooth="yes"/>
      <point x="414" y="628"/>
      <point x="421" y="624"/>
      <point x="427" y="618" type="curve" smooth="yes"/>
      <point x="433" y="612"/>
      <point x="438" y="605"/>
      <point x="442" y="597" type="curve" smooth="yes"/>
      <point x="446" y="589"/>
      <point x="448" y="582"/>
      <point x="450" y="573" type="curve"/>
      <point x="452" y="566"/>
      <point x="455" y="561"/>
      <point x="459" y="558" type="curve" smooth="yes"/>
      <point x="463" y="555"/>
      <point x="468" y="553"/>
      <point x="474" y="553" type="curve" smooth="yes"/>
      <point x="477" y="553" type="line" smooth="yes"/>
      <point x="478" y="553"/>
      <point x="479" y="554"/>
      <point x="480" y="554" type="curve"/>
      <point x="561" y="570" type="line"/>
      <point x="562" y="591"/>
      <point x="558" y="611"/>
      <point x="551" y="630" type="curve" smooth="yes"/>
      <point x="544" y="649"/>
      <point x="534" y="667"/>
      <point x="519" y="682" type="curve" smooth="yes"/>
      <point x="504" y="697"/>
      <point x="486" y="709"/>
      <point x="464" y="718" type="curve" smooth="yes"/>
      <point x="442" y="727"/>
      <point x="416" y="731"/>
      <point x="387" y="731" type="curve" smooth="yes"/>
    </contour>
    <contour>
      <point x="151" y="234"/>
      <point x="160" y="257"/>
      <point x="175" y="279" type="curve" smooth="yes"/>
      <point x="190" y="301"/>
      <point x="212" y="321"/>
      <point x="241" y="338" type="curve"/>
      <point x="407" y="143" type="line"/>
      <point x="385" y="127"/>
      <point x="361" y="113"/>
      <point x="336" y="104" type="curve" smooth="yes"/>
      <point x="311" y="95"/>
      <point x="283" y="91"/>
      <point x="254" y="91" type="curve" smooth="yes"/>
      <point x="238" y="91"/>
      <point x="223" y="93"/>
      <point x="209" y="99" type="curve" smooth="yes"/>
      <point x="195" y="105"/>
      <point x="183" y="112"/>
      <point x="173" y="122" type="curve" smooth="yes"/>
      <point x="163" y="132"/>
      <point x="157" y="145"/>
      <point x="152" y="160" type="curve" smooth="yes"/>
      <point x="147" y="175"/>
      <point x="146" y="191"/>
      <point x="148" y="209" type="curve" smooth="yes"/>
    </contour>
  </outline>
</glyph>
<glyph name="quotesingle" format="1">
  <advance width="177"/>
  <unicode hex="0027"/>
  <note>
    quotesingle
  </note>
  <outline>
    <contour>
      <point x="153" y="723" type="line"/>
      <point x="46" y="723" type="line"/>
      <point x="28" y="579" type="line"/>
      <point x="29" y="501" type="line" smooth="yes"/>
      <point x="29" y="486"/>
      <point x="33" y="475"/>
      <point x="39" y="467" type="curve" smooth="yes"/>
      <point x="45" y="459"/>
      <point x="54" y="456"/>
      <point x="66" y="456" type="curve" smooth="yes"/>
      <point x="80" y="456"/>
      <point x="91" y="459"/>
      <point x="98" y="467" type="curve" smooth="yes"/>
      <point x="105" y="475"/>
      <point x="110" y="486"/>
      <point x="114" y="501" type="curve" smooth="yes"/>
      <point x="136" y="579" type="line"/>
    </contour>
  </outline>
</glyph>
<glyph name="slash" format="1">
  <advance width="543"/>
  <unicode hex="002F"/>
  <note>
    slash
  </note>
  <outline>
    <contour>
      <point x="524" y="743" type="line"/>
      <point x="472" y="743" type="line" smooth="yes"/>
      <point x="457" y="743"/>
      <point x="444" y="740"/>
      <point x="432" y="732" type="curve" smooth="yes"/>
      <point x="420" y="724"/>
      <point x="410" y="714"/>
      <point x="403" y="700" type="curve" smooth="yes"/>
      <point x="20" y="-48" type="line"/>
      <point x="72" y="-48" type="line" smooth="yes"/>
      <point x="78" y="-48"/>
      <point x="84" y="-46"/>
      <point x="91" y="-44" type="curve" smooth="yes"/>
      <point x="98" y="-42"/>
      <point x="105" y="-40"/>
      <point x="111" y="-36" type="curve" smooth="yes"/>
      <point x="117" y="-32"/>
      <point x="124" y="-28"/>
      <point x="129" y="-22" type="curve" smooth="yes"/>
      <point x="134" y="-16"/>
      <point x="139" y="-10"/>
      <point x="143" y="-2" type="curve" smooth="yes"/>
    </contour>
  </outline>
</glyph>
<glyph name="four" format="1">
  <advance width="594"/>
  <unicode hex="0034"/>
  <note>
    four
  </note>
  <outline>
    <contour>
      <point x="481" y="272" type="line"/>
      <point x="537" y="724" type="line"/>
      <point x="420" y="724" type="line"/>
      <point x="21" y="266" type="line"/>
      <point x="26" y="204" type="line"/>
      <point x="27" y="196"/>
      <point x="29" y="189"/>
      <point x="35" y="184" type="curve" smooth="yes"/>
      <point x="41" y="179"/>
      <point x="49" y="176"/>
      <point x="57" y="176" type="curve" smooth="yes"/>
      <point x="362" y="176" type="line"/>
      <point x="340" y="0" type="line"/>
      <point x="448" y="0" type="line"/>
      <point x="470" y="176" type="line"/>
      <point x="535" y="176" type="line" smooth="yes"/>
      <point x="543" y="176"/>
      <point x="550" y="179"/>
      <point x="555" y="184" type="curve" smooth="yes"/>
      <point x="560" y="189"/>
      <point x="563" y="194"/>
      <point x="564" y="201" type="curve" smooth="yes"/>
      <point x="572" y="272" type="line"/>
    </contour>
    <contour>
      <point x="373" y="272" type="line"/>
      <point x="153" y="272" type="line"/>
      <point x="416" y="582" type="line"/>
      <point x="413" y="569"/>
      <point x="410" y="556"/>
      <point x="408" y="544" type="curve" smooth="yes"/>
      <point x="406" y="532"/>
      <point x="403" y="520"/>
      <point x="402" y="509" type="curve" smooth="yes"/>
    </contour>
  </outline>
</glyph>
<glyph name="six" format="1">
  <advance width="552"/>
  <unicode hex="0036"/>
  <note>
    six
  </note>
  <outline>
    <contour>
      <point x="321" y="452"/>
      <point x="304" y="450"/>
      <point x="287" y="446" type="curve" smooth="yes"/>
      <point x="270" y="442"/>
      <point x="255" y="436"/>
      <point x="240" y="429" type="curve"/>
      <point x="245" y="434"/>
      <point x="249" y="439"/>
      <point x="254" y="444" type="curve" smooth="yes"/>
      <point x="259" y="449"/>
      <point x="264" y="454"/>
      <point x="269" y="460" type="curve"/>
      <point x="516" y="723" type="line"/>
      <point x="406" y="723" type="line" smooth="yes"/>
      <point x="391" y="723"/>
      <point x="377" y="720"/>
      <point x="365" y="714" type="curve" smooth="yes"/>
      <point x="353" y="708"/>
      <point x="343" y="702"/>
      <point x="336" y="694" type="curve" smooth="yes"/>
      <point x="135" y="462" type="line" smooth="yes"/>
      <point x="101" y="423"/>
      <point x="75" y="387"/>
      <point x="57" y="351" type="curve" smooth="yes"/>
      <point x="39" y="315"/>
      <point x="28" y="280"/>
      <point x="24" y="246" type="curve" smooth="yes"/>
      <point x="19" y="208"/>
      <point x="20" y="173"/>
      <point x="28" y="142" type="curve" smooth="yes"/>
      <point x="36" y="111"/>
      <point x="49" y="84"/>
      <point x="68" y="62" type="curve" smooth="yes"/>
      <point x="87" y="40"/>
      <point x="111" y="22"/>
      <point x="140" y="10" type="curve" smooth="yes"/>
      <point x="169" y="-2"/>
      <point x="203" y="-8"/>
      <point x="242" y="-8" type="curve" smooth="yes"/>
      <point x="280" y="-8"/>
      <point x="316" y="-2"/>
      <point x="349" y="11" type="curve" smooth="yes"/>
      <point x="382" y="24"/>
      <point x="411" y="41"/>
      <point x="436" y="63" type="curve" smooth="yes"/>
      <point x="461" y="85"/>
      <point x="481" y="110"/>
      <point x="497" y="140" type="curve" smooth="yes"/>
      <point x="513" y="170"/>
      <point x="523" y="201"/>
      <point x="527" y="235" type="curve" smooth="yes"/>
      <point x="531" y="271"/>
      <point x="530" y="303"/>
      <point x="521" y="330" type="curve" smooth="yes"/>
      <point x="512" y="357"/>
      <point x="499" y="379"/>
      <point x="482" y="397" type="curve" smooth="yes"/>
      <point x="465" y="415"/>
      <point x="443" y="429"/>
      <point x="418" y="438" type="curve" smooth="yes"/>
      <point x="393" y="447"/>
      <point x="367" y="452"/>
      <point x="340" y="452" type="curve" smooth="yes"/>
    </contour>
    <contour>
      <point x="142" y="246"/>
      <point x="147" y="263"/>
      <point x="155" y="279" type="curve" smooth="yes"/>
      <point x="163" y="295"/>
      <point x="174" y="309"/>
      <point x="187" y="321" type="curve" smooth="yes"/>
      <point x="200" y="333"/>
      <point x="215" y="342"/>
      <point x="232" y="349" type="curve" smooth="yes"/>
      <point x="249" y="356"/>
      <point x="267" y="359"/>
      <point x="287" y="359" type="curve" smooth="yes"/>
      <point x="307" y="359"/>
      <point x="323" y="356"/>
      <point x="339" y="350" type="curve" smooth="yes"/>
      <point x="355" y="344"/>
      <point x="368" y="336"/>
      <point x="378" y="324" type="curve" smooth="yes"/>
      <point x="388" y="312"/>
      <point x="396" y="298"/>
      <point x="400" y="282" type="curve" smooth="yes"/>
      <point x="404" y="266"/>
      <point x="406" y="247"/>
      <point x="403" y="226" type="curve"/>
      <point x="401" y="207"/>
      <point x="395" y="189"/>
      <point x="386" y="173" type="curve" smooth="yes"/>
      <point x="377" y="157"/>
      <point x="366" y="143"/>
      <point x="353" y="131" type="curve" smooth="yes"/>
      <point x="340" y="119"/>
      <point x="324" y="110"/>
      <point x="307" y="103" type="curve" smooth="yes"/>
      <point x="290" y="96"/>
      <point x="272" y="93"/>
      <point x="252" y="93" type="curve" smooth="yes"/>
      <point x="231" y="93"/>
      <point x="213" y="97"/>
      <point x="198" y="103" type="curve" smooth="yes"/>
      <point x="183" y="109"/>
      <point x="170" y="118"/>
      <point x="161" y="130" type="curve" smooth="yes"/>
      <point x="152" y="142"/>
      <point x="144" y="156"/>
      <point x="141" y="172" type="curve" smooth="yes"/>
      <point x="138" y="188"/>
      <point x="138" y="207"/>
      <point x="140" y="227" type="curve" smooth="yes"/>
    </contour>
  </outline>
</glyph>
<glyph name="eight" format="1">
  <advance width="564"/>
  <unicode hex="0038"/>
  <note>
    eight
  </note>
  <outline>
    <contour>
      <point x="284" y="-8"/>
      <point x="319" y="-3"/>
      <point x="351" y="7" type="curve" smooth="yes"/>
      <point x="383" y="17"/>
      <point x="411" y="32"/>
      <point x="435" y="50" type="curve" smooth="yes"/>
      <point x="459" y="68"/>
      <point x="480" y="90"/>
      <point x="495" y="116" type="curve" smooth="yes"/>
      <point x="510" y="142"/>
      <point x="520" y="171"/>
      <point x="524" y="203" type="curve" smooth="yes"/>
      <point x="529" y="246"/>
      <point x="523" y="281"/>
      <point x="506" y="311" type="curve" smooth="yes"/>
      <point x="489" y="341"/>
      <point x="459" y="363"/>
      <point x="416" y="377" type="curve"/>
      <point x="453" y="392"/>
      <point x="481" y="413"/>
      <point x="502" y="440" type="curve" smooth="yes"/>
      <point x="523" y="467"/>
      <point x="536" y="499"/>
      <point x="541" y="537" type="curve" smooth="yes"/>
      <point x="544" y="564"/>
      <point x="541" y="590"/>
      <point x="533" y="614" type="curve" smooth="yes"/>
      <point x="525" y="638"/>
      <point x="512" y="657"/>
      <point x="494" y="675" type="curve" smooth="yes"/>
      <point x="476" y="692"/>
      <point x="455" y="706"/>
      <point x="428" y="716" type="curve" smooth="yes"/>
      <point x="401" y="726"/>
      <point x="371" y="731"/>
      <point x="338" y="731" type="curve" smooth="yes"/>
      <point x="305" y="731"/>
      <point x="273" y="726"/>
      <point x="244" y="716" type="curve" smooth="yes"/>
      <point x="215" y="706"/>
      <point x="189" y="693"/>
      <point x="167" y="675" type="curve" smooth="yes"/>
      <point x="145" y="658"/>
      <point x="127" y="638"/>
      <point x="113" y="614" type="curve" smooth="yes"/>
      <point x="99" y="590"/>
      <point x="90" y="564"/>
      <point x="87" y="537" type="curve" smooth="yes"/>
      <point x="82" y="499"/>
      <point x="87" y="467"/>
      <point x="101" y="440" type="curve" smooth="yes"/>
      <point x="115" y="413"/>
      <point x="139" y="392"/>
      <point x="173" y="377" type="curve"/>
      <point x="127" y="363"/>
      <point x="92" y="341"/>
      <point x="67" y="311" type="curve" smooth="yes"/>
      <point x="42" y="281"/>
      <point x="27" y="246"/>
      <point x="22" y="203" type="curve" smooth="yes"/>
      <point x="18" y="171"/>
      <point x="20" y="142"/>
      <point x="29" y="116" type="curve" smooth="yes"/>
      <point x="38" y="90"/>
      <point x="52" y="68"/>
      <point x="72" y="50" type="curve" smooth="yes"/>
      <point x="92" y="32"/>
      <point x="116" y="17"/>
      <point x="146" y="7" type="curve" smooth="yes"/>
      <point x="176" y="-3"/>
      <point x="210" y="-8"/>
      <point x="247" y="-8" type="curve" smooth="yes"/>
    </contour>
    <contour>
      <point x="239" y="88"/>
      <point x="221" y="91"/>
      <point x="206" y="97" type="curve" smooth="yes"/>
      <point x="191" y="103"/>
      <point x="180" y="112"/>
      <point x="171" y="122" type="curve" smooth="yes"/>
      <point x="162" y="132"/>
      <point x="155" y="144"/>
      <point x="151" y="158" type="curve" smooth="yes"/>
      <point x="147" y="172"/>
      <point x="147" y="188"/>
      <point x="149" y="205" type="curve" smooth="yes"/>
      <point x="154" y="245"/>
      <point x="169" y="275"/>
      <point x="193" y="295" type="curve" smooth="yes"/>
      <point x="217" y="315"/>
      <point x="249" y="326"/>
      <point x="288" y="326" type="curve" smooth="yes"/>
      <point x="327" y="326"/>
      <point x="355" y="315"/>
      <point x="375" y="295" type="curve" smooth="yes"/>
      <point x="395" y="275"/>
      <point x="402" y="245"/>
      <point x="397" y="205" type="curve" smooth="yes"/>
      <point x="395" y="188"/>
      <point x="390" y="172"/>
      <point x="383" y="158" type="curve" smooth="yes"/>
      <point x="376" y="144"/>
      <point x="367" y="132"/>
      <point x="355" y="122" type="curve" smooth="yes"/>
      <point x="343" y="112"/>
      <point x="329" y="103"/>
      <point x="313" y="97" type="curve" smooth="yes"/>
      <point x="297" y="91"/>
      <point x="279" y="88"/>
      <point x="259" y="88" type="curve" smooth="yes"/>
    </contour>
    <contour>
      <point x="280" y="422"/>
      <point x="263" y="426"/>
      <point x="250" y="432" type="curve" smooth="yes"/>
      <point x="237" y="438"/>
      <point x="228" y="447"/>
      <point x="221" y="457" type="curve" smooth="yes"/>
      <point x="214" y="467"/>
      <point x="209" y="479"/>
      <point x="207" y="493" type="curve" smooth="yes"/>
      <point x="205" y="506"/>
      <point x="205" y="521"/>
      <point x="207" y="535" type="curve" smooth="yes"/>
      <point x="209" y="549"/>
      <point x="212" y="562"/>
      <point x="218" y="574" type="curve" smooth="yes"/>
      <point x="224" y="586"/>
      <point x="232" y="597"/>
      <point x="242" y="607" type="curve" smooth="yes"/>
      <point x="252" y="617"/>
      <point x="264" y="623"/>
      <point x="278" y="629" type="curve" smooth="yes"/>
      <point x="292" y="635"/>
      <point x="308" y="638"/>
      <point x="326" y="638" type="curve" smooth="yes"/>
      <point x="344" y="638"/>
      <point x="360" y="635"/>
      <point x="373" y="629" type="curve" smooth="yes"/>
      <point x="386" y="623"/>
      <point x="395" y="617"/>
      <point x="403" y="607" type="curve" smooth="yes"/>
      <point x="411" y="597"/>
      <point x="415" y="586"/>
      <point x="418" y="574" type="curve" smooth="yes"/>
      <point x="421" y="562"/>
      <point x="422" y="549"/>
      <point x="420" y="535" type="curve" smooth="yes"/>
      <point x="418" y="521"/>
      <point x="415" y="507"/>
      <point x="410" y="493" type="curve" smooth="yes"/>
      <point x="405" y="479"/>
      <point x="398" y="467"/>
      <point x="388" y="457" type="curve" smooth="yes"/>
      <point x="378" y="447"/>
      <point x="365" y="438"/>
      <point x="351" y="432" type="curve" smooth="yes"/>
      <point x="337" y="426"/>
      <point x="320" y="422"/>
      <point x="300" y="422" type="curve" smooth="yes"/>
    </contour>
  </outline>
</glyph>
<glyph name="colon" format="1">
  <advance width="243"/>
  <unicode hex="003A"/>
  <note>
    colon
  </note>
  <outline>
    <contour>
      <point x="23" y="57"/>
      <point x="23" y="47"/>
      <point x="26" y="38" type="curve" smooth="yes"/>
      <point x="29" y="29"/>
      <point x="33" y="22"/>
      <point x="39" y="15" type="curve" smooth="yes"/>
      <point x="45" y="8"/>
      <point x="53" y="3"/>
      <point x="62" y="-1" type="curve" smooth="yes"/>
      <point x="71" y="-5"/>
      <point x="80" y="-7"/>
      <point x="91" y="-7" type="curve" smooth="yes"/>
      <point x="101" y="-7"/>
      <point x="111" y="-5"/>
      <point x="121" y="-1" type="curve" smooth="yes"/>
      <point x="131" y="3"/>
      <point x="140" y="8"/>
      <point x="147" y="15" type="curve" smooth="yes"/>
      <point x="154" y="22"/>
      <point x="161" y="29"/>
      <point x="166" y="38" type="curve" smooth="yes"/>
      <point x="171" y="47"/>
      <point x="175" y="57"/>
      <point x="176" y="68" type="curve" smooth="yes"/>
      <point x="177" y="78"/>
      <point x="176" y="89"/>
      <point x="173" y="98" type="curve" smooth="yes"/>
      <point x="170" y="107"/>
      <point x="166" y="115"/>
      <point x="160" y="122" type="curve" smooth="yes"/>
      <point x="154" y="129"/>
      <point x="147" y="134"/>
      <point x="138" y="138" type="curve" smooth="yes"/>
      <point x="129" y="142"/>
      <point x="119" y="144"/>
      <point x="109" y="144" type="curve" smooth="yes"/>
      <point x="98" y="144"/>
      <point x="89" y="142"/>
      <point x="79" y="138" type="curve" smooth="yes"/>
      <point x="69" y="134"/>
      <point x="60" y="129"/>
      <point x="52" y="122" type="curve" smooth="yes"/>
      <point x="44" y="115"/>
      <point x="39" y="107"/>
      <point x="34" y="98" type="curve" smooth="yes"/>
      <point x="29" y="89"/>
      <point x="25" y="78"/>
      <point x="24" y="68" type="curve" smooth="yes"/>
    </contour>
    <contour>
      <point x="67" y="413"/>
      <point x="67" y="404"/>
      <point x="70" y="395" type="curve" smooth="yes"/>
      <point x="73" y="386"/>
      <point x="77" y="378"/>
      <point x="83" y="371" type="curve" smooth="yes"/>
      <point x="89" y="364"/>
      <point x="96" y="359"/>
      <point x="105" y="355" type="curve" smooth="yes"/>
      <point x="114" y="351"/>
      <point x="124" y="350"/>
      <point x="135" y="350" type="curve" smooth="yes"/>
      <point x="145" y="350"/>
      <point x="155" y="351"/>
      <point x="165" y="355" type="curve" smooth="yes"/>
      <point x="175" y="359"/>
      <point x="184" y="364"/>
      <point x="191" y="371" type="curve" smooth="yes"/>
      <point x="198" y="378"/>
      <point x="205" y="386"/>
      <point x="210" y="395" type="curve" smooth="yes"/>
      <point x="215" y="404"/>
      <point x="218" y="414"/>
      <point x="219" y="425" type="curve" smooth="yes"/>
      <point x="220" y="435"/>
      <point x="220" y="445"/>
      <point x="217" y="454" type="curve" smooth="yes"/>
      <point x="214" y="463"/>
      <point x="210" y="471"/>
      <point x="204" y="478" type="curve" smooth="yes"/>
      <point x="198" y="485"/>
      <point x="191" y="490"/>
      <point x="182" y="494" type="curve" smooth="yes"/>
      <point x="173" y="498"/>
      <point x="163" y="500"/>
      <point x="153" y="500" type="curve" smooth="yes"/>
      <point x="142" y="500"/>
      <point x="132" y="498"/>
      <point x="122" y="494" type="curve" smooth="yes"/>
      <point x="112" y="490"/>
      <point x="104" y="485"/>
      <point x="96" y="478" type="curve" smooth="yes"/>
      <point x="88" y="471"/>
      <point x="82" y="463"/>
      <point x="77" y="454" type="curve" smooth="yes"/>
      <point x="72" y="445"/>
      <point x="69" y="434"/>
      <point x="68" y="424" type="curve" smooth="yes"/>
    </contour>
  </outline>
</glyph>
<glyph name="A" format="1">
  <advance width="823"/>
  <unicode hex="0041"/>
  <note>
    A
  </note>
  <outline>
    <contour>
      <point x="780" y="79"/>
      <point x="763" y="87"/>
      <point x="733" y="100" type="curve"/>
      <point x="565" y="723" type="line"/>
      <point x="427" y="723" type="line"/>
      <point x="106" y="100" type="line"/>
      <point x="73" y="87"/>
      <point x="54" y="79"/>
      <point x="48" y="77" type="curve"/>
      <point x="34" y="71"/>
      <point x="26" y="63"/>
      <point x="25" y="51" type="curve" smooth="yes"/>
      <point x="19" y="0" type="line"/>
      <point x="54" y="0" type="line"/>
      <point x="133" y="0" type="line"/>
      <point x="149" y="0" type="line"/>
      <point x="159" y="0" type="line"/>
      <point x="263" y="0" type="line"/>
      <point x="270" y="51" type="line"/>
      <point x="271" y="63"/>
      <point x="266" y="71"/>
      <point x="253" y="77" type="curve" smooth="yes"/>
      <point x="251" y="78"/>
      <point x="244" y="80"/>
      <point x="234" y="85" type="curve"/>
      <point x="237" y="91" type="line"/>
      <point x="287" y="194" type="line"/>
      <point x="575" y="194" type="line"/>
      <point x="599" y="96" type="line"/>
      <point x="601" y="85" type="line"/>
      <point x="590" y="80"/>
      <point x="583" y="78"/>
      <point x="580" y="77" type="curve"/>
      <point x="566" y="71"/>
      <point x="558" y="63"/>
      <point x="557" y="51" type="curve" smooth="yes"/>
      <point x="551" y="0" type="line"/>
      <point x="656" y="0" type="line"/>
      <point x="665" y="0" type="line"/>
      <point x="682" y="0" type="line"/>
      <point x="760" y="0" type="line"/>
      <point x="795" y="0" type="line"/>
      <point x="802" y="51" type="line"/>
      <point x="803" y="63"/>
      <point x="798" y="72"/>
      <point x="785" y="77" type="curve" smooth="yes"/>
    </contour>
    <contour>
      <point x="443" y="513" type="line"/>
      <point x="449" y="524"/>
      <point x="455" y="536"/>
      <point x="461" y="551" type="curve" smooth="yes"/>
      <point x="467" y="566"/>
      <point x="473" y="581"/>
      <point x="480" y="598" type="curve"/>
      <point x="483" y="581"/>
      <point x="486" y="565"/>
      <point x="489" y="551" type="curve" smooth="yes"/>
      <point x="492" y="537"/>
      <point x="495" y="524"/>
      <point x="498" y="513" type="curve" smooth="yes"/>
      <point x="552" y="289" type="line"/>
      <point x="333" y="289" type="line"/>
    </contour>
    <contour>
      <point x="741" y="10" type="move" name="ogonek"/>
    </contour>
    <contour>
      <point x="412" y="0" type="move" name="bottom"/>
    </contour>
    <contour>
      <point x="412" y="723" type="move" name="top"/>
    </contour>
  </outline>
</glyph>
<glyph name="F" format="1">
  <advance width="683"/>
  <unicode hex="0046"/>
  <note>
    F
  </note>
  <outline>
    <contour>
      <point x="640" y="723" type="line"/>
      <point x="617" y="723" type="line"/>
      <point x="184" y="723" type="line"/>
      <point x="108" y="723" type="line"/>
      <point x="101" y="664" type="line" smooth="yes"/>
      <point x="99" y="647"/>
      <point x="106" y="637"/>
      <point x="122" y="633" type="curve"/>
      <point x="123" y="633"/>
      <point x="125" y="633"/>
      <point x="128" y="632" type="curve"/>
      <point x="131" y="632"/>
      <point x="135" y="630"/>
      <point x="142" y="629" type="curve" smooth="yes"/>
      <point x="149" y="628"/>
      <point x="159" y="626"/>
      <point x="171" y="624" type="curve"/>
      <point x="107" y="99" type="line"/>
      <point x="94" y="97"/>
      <point x="84" y="95"/>
      <point x="77" y="94" type="curve" smooth="yes"/>
      <point x="70" y="93"/>
      <point x="64" y="91"/>
      <point x="61" y="91" type="curve" smooth="yes"/>
      <point x="58" y="91"/>
      <point x="57" y="90"/>
      <point x="55" y="90" type="curve"/>
      <point x="38" y="86"/>
      <point x="28" y="76"/>
      <point x="26" y="59" type="curve" smooth="yes"/>
      <point x="19" y="0" type="line"/>
      <point x="95" y="0" type="line"/>
      <point x="230" y="0" type="line"/>
      <point x="306" y="0" type="line"/>
      <point x="313" y="59" type="line" smooth="yes"/>
      <point x="315" y="76"/>
      <point x="308" y="86"/>
      <point x="292" y="90" type="curve"/>
      <point x="291" y="90"/>
      <point x="289" y="91"/>
      <point x="286" y="91" type="curve" smooth="yes"/>
      <point x="283" y="91"/>
      <point x="278" y="93"/>
      <point x="271" y="94" type="curve" smooth="yes"/>
      <point x="264" y="95"/>
      <point x="254" y="97"/>
      <point x="242" y="99" type="curve"/>
      <point x="266" y="295" type="line"/>
      <point x="519" y="295" type="line"/>
      <point x="532" y="402" type="line"/>
      <point x="280" y="402" type="line"/>
      <point x="306" y="616" type="line"/>
      <point x="563" y="616" type="line"/>
      <point x="562" y="581"/>
      <point x="563" y="560"/>
      <point x="563" y="552" type="curve"/>
      <point x="564" y="540"/>
      <point x="571" y="533"/>
      <point x="584" y="533" type="curve" smooth="yes"/>
      <point x="625" y="533" type="line"/>
      <point x="637" y="533" type="line"/>
      <point x="641" y="533" type="line"/>
      <point x="653" y="630" type="line"/>
      <point x="656" y="653" type="line"/>
      <point x="665" y="723" type="line"/>
    </contour>
    <contour>
      <point x="342" y="723" type="move" name="top"/>
    </contour>
    <contour>
      <point x="342" y="0" type="move" name="bottom"/>
    </contour>
  </outline>
</glyph>
<glyph name="H" format="1">
  <advance width="888"/>
  <unicode hex="0048"/>
  <note>
    H
  </note>
  <outline>
    <contour>
      <point x="850" y="637"/>
      <point x="860" y="647"/>
      <point x="862" y="664" type="curve" smooth="yes"/>
      <point x="869" y="723" type="line"/>
      <point x="794" y="723" type="line"/>
      <point x="658" y="723" type="line"/>
      <point x="582" y="723" type="line"/>
      <point x="575" y="664" type="line" smooth="yes"/>
      <point x="573" y="647"/>
      <point x="580" y="637"/>
      <point x="596" y="633" type="curve"/>
      <point x="597" y="633"/>
      <point x="599" y="633"/>
      <point x="602" y="632" type="curve" smooth="yes"/>
      <point x="605" y="631"/>
      <point x="610" y="630"/>
      <point x="617" y="629" type="curve" smooth="yes"/>
      <point x="624" y="628"/>
      <point x="634" y="626"/>
      <point x="646" y="624" type="curve"/>
      <point x="620" y="412" type="line"/>
      <point x="281" y="412" type="line"/>
      <point x="307" y="624" type="line"/>
      <point x="320" y="626"/>
      <point x="330" y="628"/>
      <point x="337" y="629" type="curve" smooth="yes"/>
      <point x="344" y="630"/>
      <point x="349" y="631"/>
      <point x="352" y="632" type="curve" smooth="yes"/>
      <point x="355" y="633"/>
      <point x="358" y="633"/>
      <point x="359" y="633" type="curve"/>
      <point x="376" y="637"/>
      <point x="385" y="647"/>
      <point x="387" y="664" type="curve" smooth="yes"/>
      <point x="395" y="723" type="line"/>
      <point x="319" y="723" type="line"/>
      <point x="184" y="723" type="line"/>
      <point x="108" y="723" type="line"/>
      <point x="101" y="664" type="line" smooth="yes"/>
      <point x="99" y="647"/>
      <point x="106" y="637"/>
      <point x="122" y="633" type="curve"/>
      <point x="123" y="633"/>
      <point x="125" y="633"/>
      <point x="128" y="632" type="curve"/>
      <point x="131" y="632"/>
      <point x="135" y="630"/>
      <point x="142" y="629" type="curve" smooth="yes"/>
      <point x="149" y="628"/>
      <point x="159" y="626"/>
      <point x="171" y="624" type="curve"/>
      <point x="107" y="99" type="line"/>
      <point x="94" y="97"/>
      <point x="84" y="95"/>
      <point x="77" y="94" type="curve" smooth="yes"/>
      <point x="70" y="93"/>
      <point x="64" y="91"/>
      <point x="61" y="91" type="curve" smooth="yes"/>
      <point x="58" y="91"/>
      <point x="56" y="90"/>
      <point x="55" y="90" type="curve"/>
      <point x="38" y="86"/>
      <point x="28" y="76"/>
      <point x="26" y="59" type="curve" smooth="yes"/>
      <point x="19" y="0" type="line"/>
      <point x="95" y="0" type="line"/>
      <point x="230" y="0" type="line"/>
      <point x="306" y="0" type="line"/>
      <point x="313" y="59" type="line" smooth="yes"/>
      <point x="315" y="76"/>
      <point x="308" y="86"/>
      <point x="292" y="90" type="curve"/>
      <point x="291" y="90"/>
      <point x="289" y="90"/>
      <point x="286" y="91" type="curve"/>
      <point x="283" y="91"/>
      <point x="278" y="93"/>
      <point x="271" y="94" type="curve" smooth="yes"/>
      <point x="264" y="95"/>
      <point x="254" y="97"/>
      <point x="242" y="99" type="curve"/>
      <point x="269" y="316" type="line"/>
      <point x="608" y="316" type="line"/>
      <point x="581" y="99" type="line"/>
      <point x="568" y="97"/>
      <point x="558" y="95"/>
      <point x="551" y="94" type="curve" smooth="yes"/>
      <point x="544" y="93"/>
      <point x="539" y="92"/>
      <point x="536" y="91" type="curve" smooth="yes"/>
      <point x="533" y="90"/>
      <point x="531" y="90"/>
      <point x="530" y="90" type="curve"/>
      <point x="513" y="86"/>
      <point x="503" y="76"/>
      <point x="501" y="59" type="curve" smooth="yes"/>
      <point x="494" y="0" type="line"/>
      <point x="569" y="0" type="line"/>
      <point x="705" y="0" type="line"/>
      <point x="780" y="0" type="line"/>
      <point x="788" y="59" type="line" smooth="yes"/>
      <point x="790" y="76"/>
      <point x="783" y="86"/>
      <point x="767" y="90" type="curve"/>
      <point x="766" y="90"/>
      <point x="763" y="91"/>
      <point x="760" y="91" type="curve" smooth="yes"/>
      <point x="757" y="91"/>
      <point x="753" y="93"/>
      <point x="746" y="94" type="curve" smooth="yes"/>
      <point x="739" y="95"/>
      <point x="729" y="97"/>
      <point x="717" y="99" type="curve"/>
      <point x="781" y="624" type="line"/>
      <point x="794" y="626"/>
      <point x="805" y="628"/>
      <point x="812" y="629" type="curve" smooth="yes"/>
      <point x="819" y="630"/>
      <point x="824" y="632"/>
      <point x="827" y="632" type="curve" smooth="yes"/>
      <point x="830" y="632"/>
      <point x="831" y="633"/>
      <point x="833" y="633" type="curve"/>
    </contour>
    <contour>
      <point x="444" y="0" type="move" name="bottom"/>
    </contour>
    <contour>
      <point x="444" y="723" type="move" name="top"/>
    </contour>
    <contour>
      <point x="20" y="723" type="move" name="topleft"/>
    </contour>
    <contour>
      <point x="444" y="362" type="move" name="center"/>
    </contour>
  </outline>
</glyph>
<glyph name="I" format="1">
  <advance width="413"/>
  <unicode hex="0049"/>
  <note>
    I
  </note>
  <outline>
    <contour>
      <point x="375" y="637"/>
      <point x="385" y="647"/>
      <point x="387" y="664" type="curve" smooth="yes"/>
      <point x="394" y="723" type="line"/>
      <point x="319" y="723" type="line"/>
      <point x="184" y="723" type="line"/>
      <point x="108" y="723" type="line"/>
      <point x="101" y="664" type="line" smooth="yes"/>
      <point x="99" y="647"/>
      <point x="106" y="637"/>
      <point x="122" y="633" type="curve"/>
      <point x="123" y="633"/>
      <point x="125" y="633"/>
      <point x="128" y="632" type="curve"/>
      <point x="131" y="632"/>
      <point x="135" y="630"/>
      <point x="142" y="629" type="curve" smooth="yes"/>
      <point x="149" y="628"/>
      <point x="159" y="626"/>
      <point x="171" y="624" type="curve"/>
      <point x="107" y="99" type="line"/>
      <point x="94" y="97"/>
      <point x="84" y="95"/>
      <point x="77" y="94" type="curve" smooth="yes"/>
      <point x="70" y="93"/>
      <point x="64" y="91"/>
      <point x="61" y="91" type="curve" smooth="yes"/>
      <point x="58" y="91"/>
      <point x="56" y="90"/>
      <point x="55" y="90" type="curve"/>
      <point x="38" y="86"/>
      <point x="28" y="76"/>
      <point x="26" y="59" type="curve" smooth="yes"/>
      <point x="19" y="0" type="line"/>
      <point x="95" y="0" type="line"/>
      <point x="230" y="0" type="line"/>
      <point x="305" y="0" type="line"/>
      <point x="313" y="59" type="line" smooth="yes"/>
      <point x="315" y="76"/>
      <point x="308" y="86"/>
      <point x="292" y="90" type="curve"/>
      <point x="291" y="90"/>
      <point x="288" y="91"/>
      <point x="285" y="91" type="curve" smooth="yes"/>
      <point x="282" y="91"/>
      <point x="278" y="93"/>
      <point x="271" y="94" type="curve" smooth="yes"/>
      <point x="264" y="95"/>
      <point x="254" y="97"/>
      <point x="242" y="99" type="curve"/>
      <point x="306" y="624" type="line"/>
      <point x="319" y="626"/>
      <point x="330" y="628"/>
      <point x="337" y="629" type="curve" smooth="yes"/>
      <point x="344" y="630"/>
      <point x="349" y="632"/>
      <point x="352" y="632" type="curve" smooth="yes"/>
      <point x="355" y="632"/>
      <point x="356" y="633"/>
      <point x="358" y="633" type="curve"/>
    </contour>
    <contour>
      <point x="372" y="10" type="move" name="ogonek"/>
    </contour>
    <contour>
      <point x="207" y="723" type="move" name="top"/>
    </contour>
    <contour>
      <point x="20" y="723" type="move" name="topleft"/>
    </contour>
    <contour>
      <point x="207" y="0" type="move" name="bottom"/>
    </contour>
  </outline>
</glyph>
<glyph name="X" format="1">
  <advance width="858"/>
  <unicode hex="0058"/>
  <note>
    X
  </note>
  <outline>
    <contour>
      <point x="742" y="91"/>
      <point x="716" y="94"/>
      <point x="672" y="99" type="curve"/>
      <point x="530" y="378" type="line"/>
      <point x="726" y="624" type="line"/>
      <point x="772" y="629"/>
      <point x="798" y="632"/>
      <point x="804" y="633" type="curve"/>
      <point x="821" y="637"/>
      <point x="831" y="647"/>
      <point x="833" y="664" type="curve" smooth="yes"/>
      <point x="840" y="723" type="line"/>
      <point x="805" y="723" type="line"/>
      <point x="770" y="723" type="line"/>
      <point x="760" y="723" type="line"/>
      <point x="676" y="723" type="line"/>
      <point x="535" y="723" type="line"/>
      <point x="527" y="664" type="line" smooth="yes"/>
      <point x="525" y="647"/>
      <point x="533" y="637"/>
      <point x="549" y="633" type="curve" smooth="yes"/>
      <point x="565" y="629"/>
      <point x="577" y="627"/>
      <point x="585" y="625" type="curve"/>
      <point x="466" y="467" type="line" smooth="yes"/>
      <point x="463" y="463"/>
      <point x="460" y="458"/>
      <point x="457" y="454" type="curve" smooth="yes"/>
      <point x="454" y="450"/>
      <point x="452" y="445"/>
      <point x="450" y="441" type="curve"/>
      <point x="359" y="626" type="line"/>
      <point x="365" y="627"/>
      <point x="376" y="630"/>
      <point x="393" y="633" type="curve"/>
      <point x="410" y="637"/>
      <point x="420" y="647"/>
      <point x="422" y="664" type="curve" smooth="yes"/>
      <point x="429" y="723" type="line"/>
      <point x="289" y="723" type="line"/>
      <point x="198" y="723" type="line"/>
      <point x="193" y="723" type="line"/>
      <point x="155" y="723" type="line"/>
      <point x="118" y="723" type="line"/>
      <point x="111" y="664" type="line" smooth="yes"/>
      <point x="109" y="647"/>
      <point x="116" y="637"/>
      <point x="132" y="633" type="curve"/>
      <point x="137" y="632"/>
      <point x="163" y="629"/>
      <point x="208" y="624" type="curve"/>
      <point x="342" y="372" type="line"/>
      <point x="132" y="99" type="line"/>
      <point x="86" y="94"/>
      <point x="62" y="91"/>
      <point x="56" y="90" type="curve"/>
      <point x="39" y="86"/>
      <point x="29" y="76"/>
      <point x="27" y="59" type="curve" smooth="yes"/>
      <point x="20" y="0" type="line"/>
      <point x="56" y="0" type="line"/>
      <point x="94" y="0" type="line"/>
      <point x="100" y="0" type="line"/>
      <point x="182" y="0" type="line"/>
      <point x="330" y="0" type="line"/>
      <point x="337" y="59" type="line" smooth="yes"/>
      <point x="339" y="76"/>
      <point x="332" y="86"/>
      <point x="316" y="90" type="curve" smooth="yes"/>
      <point x="299" y="94"/>
      <point x="285" y="97"/>
      <point x="275" y="99" type="curve"/>
      <point x="410" y="279" type="line"/>
      <point x="412" y="282"/>
      <point x="415" y="285"/>
      <point x="417" y="289" type="curve"/>
      <point x="419" y="292"/>
      <point x="420" y="296"/>
      <point x="422" y="300" type="curve"/>
      <point x="521" y="96" type="line"/>
      <point x="517" y="95"/>
      <point x="506" y="93"/>
      <point x="490" y="90" type="curve"/>
      <point x="473" y="86"/>
      <point x="464" y="76"/>
      <point x="462" y="59" type="curve" smooth="yes"/>
      <point x="454" y="0" type="line"/>
      <point x="589" y="0" type="line"/>
      <point x="681" y="0" type="line"/>
      <point x="690" y="0" type="line"/>
      <point x="723" y="0" type="line"/>
      <point x="761" y="0" type="line"/>
      <point x="768" y="59" type="line" smooth="yes"/>
      <point x="770" y="76"/>
      <point x="763" y="86"/>
      <point x="747" y="90" type="curve"/>
    </contour>
    <contour>
      <point x="429" y="723" type="move" name="top"/>
    </contour>
    <contour>
      <point x="429" y="0" type="move" name="bottom"/>
    </contour>
  </outline>
</glyph>
<glyph name="n" format="1">
  <advance width="591"/>
  <unicode hex="006E"/>
  <note>
    n
  </note>
  <outline>
    <contour>
      <point x="548" y="90"/>
      <point x="545" y="90"/>
      <point x="542" y="91" type="curve" smooth="yes"/>
      <point x="539" y="92"/>
      <point x="535" y="93"/>
      <point x="528" y="94" type="curve" smooth="yes"/>
      <point x="521" y="95"/>
      <point x="511" y="97"/>
      <point x="499" y="99" type="curve"/>
      <point x="527" y="326" type="line" smooth="yes"/>
      <point x="531" y="355"/>
      <point x="530" y="381"/>
      <point x="525" y="405" type="curve" smooth="yes"/>
      <point x="520" y="429"/>
      <point x="512" y="450"/>
      <point x="500" y="467" type="curve" smooth="yes"/>
      <point x="488" y="484"/>
      <point x="471" y="498"/>
      <point x="451" y="507" type="curve" smooth="yes"/>
      <point x="430" y="517"/>
      <point x="406" y="521"/>
      <point x="378" y="521" type="curve" smooth="yes"/>
      <point x="361" y="521"/>
      <point x="344" y="519"/>
      <point x="329" y="516" type="curve" smooth="yes"/>
      <point x="314" y="513"/>
      <point x="300" y="507"/>
      <point x="286" y="501" type="curve" smooth="yes"/>
      <point x="272" y="495"/>
      <point x="260" y="488"/>
      <point x="247" y="479" type="curve" smooth="yes"/>
      <point x="234" y="470"/>
      <point x="223" y="461"/>
      <point x="211" y="450" type="curve"/>
      <point x="207" y="490" type="line"/>
      <point x="204" y="505"/>
      <point x="194" y="513"/>
      <point x="178" y="513" type="curve" smooth="yes"/>
      <point x="103" y="513" type="line"/>
      <point x="27" y="513" type="line"/>
      <point x="20" y="454" type="line" smooth="yes"/>
      <point x="18" y="437"/>
      <point x="25" y="427"/>
      <point x="41" y="423" type="curve"/>
      <point x="42" y="423"/>
      <point x="44" y="423"/>
      <point x="47" y="422" type="curve"/>
      <point x="50" y="422"/>
      <point x="55" y="420"/>
      <point x="62" y="419" type="curve" smooth="yes"/>
      <point x="69" y="418"/>
      <point x="79" y="416"/>
      <point x="91" y="414" type="curve"/>
      <point x="58" y="149" type="line"/>
      <point x="40" y="0" type="line"/>
      <point x="163" y="0" type="line"/>
      <point x="176" y="99" type="line"/>
      <point x="186" y="184" type="line"/>
      <point x="189" y="208" type="line"/>
      <point x="209" y="371" type="line"/>
      <point x="228" y="388"/>
      <point x="247" y="400"/>
      <point x="267" y="410" type="curve" smooth="yes"/>
      <point x="287" y="420"/>
      <point x="308" y="425"/>
      <point x="329" y="425" type="curve" smooth="yes"/>
      <point x="358" y="425"/>
      <point x="379" y="416"/>
      <point x="391" y="399" type="curve" smooth="yes"/>
      <point x="403" y="382"/>
      <point x="407" y="357"/>
      <point x="403" y="326" type="curve" smooth="yes"/>
      <point x="363" y="0" type="line"/>
      <point x="487" y="0" type="line"/>
      <point x="563" y="0" type="line"/>
      <point x="570" y="59" type="line" smooth="yes"/>
      <point x="572" y="76"/>
      <point x="565" y="86"/>
      <point x="549" y="90" type="curve"/>
    </contour>
    <contour>
      <point x="296" y="513" type="move" name="top"/>
    </contour>
    <contour>
      <point x="296" y="0" type="move" name="bottom"/>
    </contour>
  </outline>
</glyph>
<glyph name="v" format="1">
  <advance width="633"/>
  <unicode hex="0076"/>
  <note>
    v
  </note>
  <outline>
    <contour>
      <point x="580" y="513" type="line"/>
      <point x="580" y="513" type="line"/>
      <point x="483" y="513" type="line"/>
      <point x="483" y="513" type="line"/>
      <point x="364" y="513" type="line"/>
      <point x="356" y="454" type="line" smooth="yes"/>
      <point x="354" y="437"/>
      <point x="362" y="427"/>
      <point x="378" y="423" type="curve"/>
      <point x="384" y="422"/>
      <point x="385" y="421"/>
      <point x="410" y="417" type="curve"/>
      <point x="311" y="216" type="line" smooth="yes"/>
      <point x="303" y="200"/>
      <point x="296" y="184"/>
      <point x="290" y="169" type="curve" smooth="yes"/>
      <point x="284" y="154"/>
      <point x="279" y="138"/>
      <point x="274" y="123" type="curve"/>
      <point x="273" y="138"/>
      <point x="272" y="154"/>
      <point x="270" y="169" type="curve" smooth="yes"/>
      <point x="268" y="184"/>
      <point x="265" y="200"/>
      <point x="261" y="216" type="curve" smooth="yes"/>
      <point x="213" y="418" type="line"/>
      <point x="233" y="422"/>
      <point x="235" y="422"/>
      <point x="241" y="423" type="curve"/>
      <point x="258" y="427"/>
      <point x="268" y="437"/>
      <point x="270" y="454" type="curve" smooth="yes"/>
      <point x="277" y="513" type="line"/>
      <point x="163" y="513" type="line"/>
      <point x="163" y="513" type="line"/>
      <point x="61" y="513" type="line"/>
      <point x="61" y="513" type="line"/>
      <point x="28" y="513" type="line"/>
      <point x="20" y="454" type="line" smooth="yes"/>
      <point x="18" y="437"/>
      <point x="26" y="427"/>
      <point x="42" y="423" type="curve"/>
      <point x="50" y="422"/>
      <point x="46" y="422"/>
      <point x="88" y="414" type="curve"/>
      <point x="202" y="0" type="line"/>
      <point x="314" y="0" type="line"/>
      <point x="529" y="414" type="line"/>
      <point x="572" y="421"/>
      <point x="569" y="422"/>
      <point x="577" y="423" type="curve"/>
      <point x="594" y="427"/>
      <point x="604" y="437"/>
      <point x="606" y="454" type="curve" smooth="yes"/>
      <point x="613" y="513" type="line"/>
    </contour>
    <contour>
      <point x="317" y="513" type="move" name="top"/>
    </contour>
    <contour>
      <point x="317" y="0" type="move" name="bottom"/>
    </contour>
  </outline>
</glyph>
<glyph name="w" format="1">
  <advance width="913"/>
  <unicode hex="0077"/>
  <note>
    w
  </note>
  <outline>
    <contour>
      <point x="853" y="513" type="line"/>
      <point x="853" y="513" type="line"/>
      <point x="759" y="513" type="line"/>
      <point x="759" y="513" type="line"/>
      <point x="644" y="513" type="line"/>
      <point x="637" y="454" type="line" smooth="yes"/>
      <point x="635" y="437"/>
      <point x="642" y="427"/>
      <point x="658" y="423" type="curve"/>
      <point x="665" y="422"/>
      <point x="666" y="421"/>
      <point x="693" y="416" type="curve"/>
      <point x="613" y="216" type="line" smooth="yes"/>
      <point x="607" y="201"/>
      <point x="601" y="185"/>
      <point x="596" y="171" type="curve" smooth="yes"/>
      <point x="591" y="157"/>
      <point x="587" y="142"/>
      <point x="583" y="128" type="curve"/>
      <point x="581" y="142"/>
      <point x="580" y="155"/>
      <point x="578" y="169" type="curve" smooth="yes"/>
      <point x="576" y="183"/>
      <point x="575" y="197"/>
      <point x="572" y="211" type="curve" smooth="yes"/>
      <point x="522" y="491" type="line" smooth="yes"/>
      <point x="521" y="498"/>
      <point x="517" y="503"/>
      <point x="512" y="507" type="curve" smooth="yes"/>
      <point x="507" y="511"/>
      <point x="499" y="514"/>
      <point x="490" y="514" type="curve" smooth="yes"/>
      <point x="436" y="514" type="line" smooth="yes"/>
      <point x="428" y="514"/>
      <point x="421" y="511"/>
      <point x="414" y="507" type="curve" smooth="yes"/>
      <point x="407" y="503"/>
      <point x="403" y="498"/>
      <point x="400" y="491" type="curve" smooth="yes"/>
      <point x="281" y="216" type="line" smooth="yes"/>
      <point x="274" y="201"/>
      <point x="269" y="186"/>
      <point x="263" y="172" type="curve" smooth="yes"/>
      <point x="257" y="158"/>
      <point x="250" y="143"/>
      <point x="245" y="129" type="curve"/>
      <point x="244" y="143"/>
      <point x="245" y="158"/>
      <point x="244" y="172" type="curve" smooth="yes"/>
      <point x="243" y="186"/>
      <point x="241" y="201"/>
      <point x="239" y="216" type="curve" smooth="yes"/>
      <point x="210" y="417" type="line"/>
      <point x="234" y="421"/>
      <point x="235" y="422"/>
      <point x="241" y="423" type="curve"/>
      <point x="258" y="427"/>
      <point x="268" y="437"/>
      <point x="270" y="454" type="curve" smooth="yes"/>
      <point x="277" y="513" type="line"/>
      <point x="167" y="513" type="line"/>
      <point x="167" y="513" type="line"/>
      <point x="69" y="513" type="line"/>
      <point x="69" y="513" type="line"/>
      <point x="28" y="513" type="line"/>
      <point x="20" y="454" type="line" smooth="yes"/>
      <point x="18" y="437"/>
      <point x="26" y="427"/>
      <point x="42" y="423" type="curve"/>
      <point x="50" y="422"/>
      <point x="46" y="421"/>
      <point x="88" y="414" type="curve"/>
      <point x="168" y="0" type="line"/>
      <point x="263" y="0" type="line" smooth="yes"/>
      <point x="276" y="0"/>
      <point x="286" y="7"/>
      <point x="292" y="22" type="curve" smooth="yes"/>
      <point x="422" y="317" type="line"/>
      <point x="434" y="347" type="line" smooth="yes"/>
      <point x="438" y="357"/>
      <point x="441" y="367"/>
      <point x="444" y="377" type="curve"/>
      <point x="444" y="367"/>
      <point x="446" y="358"/>
      <point x="447" y="348" type="curve" smooth="yes"/>
      <point x="448" y="338"/>
      <point x="449" y="328"/>
      <point x="451" y="318" type="curve" smooth="yes"/>
      <point x="507" y="22" type="line" smooth="yes"/>
      <point x="510" y="7"/>
      <point x="517" y="0"/>
      <point x="528" y="0" type="curve" smooth="yes"/>
      <point x="627" y="0" type="line"/>
      <point x="809" y="414" type="line"/>
      <point x="852" y="422"/>
      <point x="850" y="422"/>
      <point x="858" y="423" type="curve"/>
      <point x="875" y="427"/>
      <point x="885" y="437"/>
      <point x="887" y="454" type="curve" smooth="yes"/>
      <point x="894" y="513" type="line"/>
    </contour>
    <contour>
      <point x="457" y="513" type="move" name="top"/>
    </contour>
    <contour>
      <point x="457" y="0" type="move" name="bottom"/>
    </contour>
  </outline>
</glyph>
<glyph name="y" format="1">
  <advance width="630"/>
  <unicode hex="0079"/>
  <note>
    y
  </note>
  <outline>
    <contour>
      <point x="581" y="513" type="line"/>
      <point x="581" y="513" type="line"/>
      <point x="482" y="513" type="line"/>
      <point x="482" y="513" type="line"/>
      <point x="361" y="513" type="line"/>
      <point x="354" y="454" type="line" smooth="yes"/>
      <point x="352" y="437"/>
      <point x="359" y="427"/>
      <point x="375" y="423" type="curve"/>
      <point x="381" y="422"/>
      <point x="383" y="422"/>
      <point x="408" y="417" type="curve"/>
      <point x="309" y="224" type="line" smooth="yes"/>
      <point x="304" y="215"/>
      <point x="300" y="206"/>
      <point x="296" y="197" type="curve" smooth="yes"/>
      <point x="292" y="188"/>
      <point x="287" y="179"/>
      <point x="283" y="169" type="curve"/>
      <point x="282" y="178"/>
      <point x="282" y="188"/>
      <point x="280" y="197" type="curve" smooth="yes"/>
      <point x="278" y="206"/>
      <point x="277" y="215"/>
      <point x="274" y="224" type="curve"/>
      <point x="217" y="419" type="line"/>
      <point x="233" y="422"/>
      <point x="235" y="422"/>
      <point x="241" y="423" type="curve"/>
      <point x="258" y="427"/>
      <point x="268" y="437"/>
      <point x="270" y="454" type="curve" smooth="yes"/>
      <point x="277" y="513" type="line"/>
      <point x="165" y="513" type="line"/>
      <point x="165" y="513" type="line"/>
      <point x="57" y="513" type="line"/>
      <point x="57" y="513" type="line"/>
      <point x="28" y="513" type="line"/>
      <point x="20" y="454" type="line" smooth="yes"/>
      <point x="18" y="437"/>
      <point x="26" y="427"/>
      <point x="42" y="423" type="curve"/>
      <point x="50" y="422"/>
      <point x="47" y="421"/>
      <point x="88" y="414" type="curve"/>
      <point x="206" y="38" type="line"/>
      <point x="85" y="-167" type="line"/>
      <point x="177" y="-167" type="line" smooth="yes"/>
      <point x="189" y="-167"/>
      <point x="198" y="-166"/>
      <point x="204" y="-161" type="curve"/>
      <point x="210" y="-157"/>
      <point x="216" y="-150"/>
      <point x="221" y="-141" type="curve" smooth="yes"/>
      <point x="527" y="414" type="line"/>
      <point x="570" y="421"/>
      <point x="567" y="422"/>
      <point x="575" y="423" type="curve"/>
      <point x="592" y="427"/>
      <point x="602" y="437"/>
      <point x="604" y="454" type="curve" smooth="yes"/>
      <point x="611" y="513" type="line"/>
    </contour>
    <contour>
      <point x="315" y="513" type="move" name="top"/>
    </contour>
    <contour>
      <point x="315" y="0" type="move" name="bottom"/>
    </contour>
  </outline>
</glyph>
<glyph name="currency" format="1">
  <advance width="552"/>
  <unicode hex="00A4"/>
  <note>
    currency
  </note>
  <outline>
    <contour>
      <point x="89" y="318"/>
      <point x="89" y="301"/>
      <point x="92" y="285" type="curve" smooth="yes"/>
      <point x="95" y="269"/>
      <point x="100" y="253"/>
      <point x="107" y="239" type="curve"/>
      <point x="22" y="164" type="line"/>
      <point x="76" y="102" type="line"/>
      <point x="162" y="178" type="line"/>
      <point x="175" y="170"/>
      <point x="189" y="163"/>
      <point x="204" y="159" type="curve" smooth="yes"/>
      <point x="219" y="155"/>
      <point x="236" y="152"/>
      <point x="253" y="152" type="curve" smooth="yes"/>
      <point x="271" y="152"/>
      <point x="288" y="155"/>
      <point x="305" y="160" type="curve" smooth="yes"/>
      <point x="322" y="165"/>
      <point x="338" y="171"/>
      <point x="353" y="180" type="curve"/>
      <point x="420" y="104" type="line"/>
      <point x="490" y="166" type="line"/>
      <point x="423" y="242" type="line"/>
      <point x="433" y="256"/>
      <point x="441" y="270"/>
      <point x="447" y="286" type="curve" smooth="yes"/>
      <point x="453" y="302"/>
      <point x="458" y="318"/>
      <point x="460" y="336" type="curve" smooth="yes"/>
      <point x="462" y="354"/>
      <point x="462" y="372"/>
      <point x="459" y="388" type="curve" smooth="yes"/>
      <point x="456" y="404"/>
      <point x="452" y="420"/>
      <point x="445" y="434" type="curve"/>
      <point x="529" y="510" type="line"/>
      <point x="475" y="571" type="line"/>
      <point x="390" y="495" type="line"/>
      <point x="377" y="503"/>
      <point x="363" y="510"/>
      <point x="348" y="514" type="curve" smooth="yes"/>
      <point x="333" y="518"/>
      <point x="315" y="521"/>
      <point x="298" y="521" type="curve" smooth="yes"/>
      <point x="280" y="521"/>
      <point x="263" y="519"/>
      <point x="246" y="514" type="curve" smooth="yes"/>
      <point x="229" y="509"/>
      <point x="212" y="503"/>
      <point x="197" y="494" type="curve"/>
      <point x="132" y="568" type="line"/>
      <point x="62" y="508" type="line"/>
      <point x="129" y="432" type="line"/>
      <point x="119" y="418"/>
      <point x="110" y="403"/>
      <point x="104" y="387" type="curve" smooth="yes"/>
      <point x="98" y="371"/>
      <point x="93" y="354"/>
      <point x="91" y="336" type="curve" smooth="yes"/>
    </contour>
    <contour>
      <point x="184" y="349"/>
      <point x="188" y="362"/>
      <point x="194" y="374" type="curve" smooth="yes"/>
      <point x="200" y="386"/>
      <point x="208" y="396"/>
      <point x="218" y="404" type="curve" smooth="yes"/>
      <point x="228" y="412"/>
      <point x="238" y="419"/>
      <point x="250" y="424" type="curve" smooth="yes"/>
      <point x="262" y="429"/>
      <point x="274" y="432"/>
      <point x="287" y="432" type="curve" smooth="yes"/>
      <point x="300" y="432"/>
      <point x="312" y="429"/>
      <point x="323" y="424" type="curve" smooth="yes"/>
      <point x="334" y="419"/>
      <point x="344" y="412"/>
      <point x="351" y="404" type="curve" smooth="yes"/>
      <point x="358" y="396"/>
      <point x="363" y="386"/>
      <point x="367" y="374" type="curve" smooth="yes"/>
      <point x="371" y="362"/>
      <point x="372" y="349"/>
      <point x="370" y="336" type="curve" smooth="yes"/>
      <point x="368" y="323"/>
      <point x="364" y="312"/>
      <point x="358" y="300" type="curve" smooth="yes"/>
      <point x="352" y="288"/>
      <point x="344" y="278"/>
      <point x="334" y="270" type="curve" smooth="yes"/>
      <point x="324" y="262"/>
      <point x="314" y="255"/>
      <point x="302" y="250" type="curve" smooth="yes"/>
      <point x="290" y="245"/>
      <point x="277" y="242"/>
      <point x="264" y="242" type="curve" smooth="yes"/>
      <point x="251" y="242"/>
      <point x="240" y="245"/>
      <point x="229" y="250" type="curve" smooth="yes"/>
      <point x="218" y="255"/>
      <point x="208" y="262"/>
      <point x="201" y="270" type="curve" smooth="yes"/>
      <point x="194" y="278"/>
      <point x="188" y="288"/>
      <point x="185" y="300" type="curve" smooth="yes"/>
      <point x="182" y="312"/>
      <point x="180" y="323"/>
      <point x="182" y="336" type="curve" smooth="yes"/>
    </contour>
  </outline>
</glyph>
<glyph name="yen" format="1">
  <advance width="617"/>
  <unicode hex="00A5"/>
  <note>
    yen
  </note>
  <outline>
    <contour>
      <point x="43" y="316" type="line"/>
      <point x="34" y="248" type="line"/>
      <point x="194" y="248" type="line"/>
      <point x="188" y="200" type="line"/>
      <point x="28" y="200" type="line"/>
      <point x="20" y="132" type="line"/>
      <point x="180" y="132" type="line"/>
      <point x="164" y="0" type="line"/>
      <point x="287" y="0" type="line"/>
      <point x="304" y="132" type="line"/>
      <point x="463" y="132" type="line"/>
      <point x="471" y="200" type="line"/>
      <point x="312" y="200" type="line"/>
      <point x="318" y="248" type="line"/>
      <point x="477" y="248" type="line"/>
      <point x="486" y="316" type="line"/>
      <point x="348" y="316" type="line"/>
      <point x="597" y="723" type="line"/>
      <point x="494" y="723" type="line" smooth="yes"/>
      <point x="483" y="723"/>
      <point x="472" y="720"/>
      <point x="464" y="714" type="curve" smooth="yes"/>
      <point x="456" y="708"/>
      <point x="450" y="701"/>
      <point x="445" y="693" type="curve"/>
      <point x="307" y="449" type="line" smooth="yes"/>
      <point x="299" y="434"/>
      <point x="291" y="421"/>
      <point x="286" y="408" type="curve" smooth="yes"/>
      <point x="281" y="395"/>
      <point x="276" y="382"/>
      <point x="272" y="370" type="curve"/>
      <point x="271" y="382"/>
      <point x="268" y="395"/>
      <point x="266" y="408" type="curve" smooth="yes"/>
      <point x="264" y="421"/>
      <point x="260" y="434"/>
      <point x="255" y="449" type="curve" smooth="yes"/>
      <point x="176" y="693" type="line" smooth="yes"/>
      <point x="173" y="702"/>
      <point x="169" y="709"/>
      <point x="162" y="715" type="curve" smooth="yes"/>
      <point x="155" y="721"/>
      <point x="146" y="723"/>
      <point x="134" y="723" type="curve" smooth="yes"/>
      <point x="32" y="723" type="line"/>
      <point x="181" y="316" type="line"/>
    </contour>
  </outline>
</glyph>
<glyph name="dieresis" format="1">
  <advance width="383"/>
  <unicode hex="00A8"/>
  <note>
    dieresis
  </note>
  <outline>
    <contour>
      <point x="169" y="656"/>
      <point x="169" y="665"/>
      <point x="166" y="673" type="curve" smooth="yes"/>
      <point x="163" y="681"/>
      <point x="159" y="690"/>
      <point x="153" y="696" type="curve" smooth="yes"/>
      <point x="147" y="702"/>
      <point x="141" y="706"/>
      <point x="133" y="710" type="curve" smooth="yes"/>
      <point x="125" y="714"/>
      <point x="116" y="716"/>
      <point x="107" y="716" type="curve" smooth="yes"/>
      <point x="98" y="716"/>
      <point x="89" y="714"/>
      <point x="80" y="710" type="curve" smooth="yes"/>
      <point x="71" y="706"/>
      <point x="64" y="702"/>
      <point x="57" y="696" type="curve" smooth="yes"/>
      <point x="50" y="690"/>
      <point x="44" y="681"/>
      <point x="39" y="673" type="curve" smooth="yes"/>
      <point x="34" y="665"/>
      <point x="31" y="656"/>
      <point x="30" y="646" type="curve" smooth="yes"/>
      <point x="29" y="637"/>
      <point x="29" y="628"/>
      <point x="32" y="620" type="curve" smooth="yes"/>
      <point x="35" y="612"/>
      <point x="39" y="604"/>
      <point x="45" y="598" type="curve" smooth="yes"/>
      <point x="51" y="592"/>
      <point x="57" y="588"/>
      <point x="65" y="584" type="curve" smooth="yes"/>
      <point x="73" y="580"/>
      <point x="81" y="579"/>
      <point x="90" y="579" type="curve" smooth="yes"/>
      <point x="99" y="579"/>
      <point x="108" y="580"/>
      <point x="117" y="584" type="curve" smooth="yes"/>
      <point x="126" y="588"/>
      <point x="134" y="592"/>
      <point x="141" y="598" type="curve" smooth="yes"/>
      <point x="148" y="604"/>
      <point x="154" y="612"/>
      <point x="159" y="620" type="curve" smooth="yes"/>
      <point x="164" y="628"/>
      <point x="167" y="637"/>
      <point x="168" y="646" type="curve" smooth="yes"/>
    </contour>
    <contour>
      <point x="356" y="656"/>
      <point x="356" y="665"/>
      <point x="353" y="673" type="curve" smooth="yes"/>
      <point x="350" y="681"/>
      <point x="347" y="690"/>
      <point x="341" y="696" type="curve" smooth="yes"/>
      <point x="335" y="702"/>
      <point x="328" y="706"/>
      <point x="320" y="710" type="curve" smooth="yes"/>
      <point x="312" y="714"/>
      <point x="303" y="716"/>
      <point x="294" y="716" type="curve" smooth="yes"/>
      <point x="285" y="716"/>
      <point x="276" y="714"/>
      <point x="267" y="710" type="curve" smooth="yes"/>
      <point x="258" y="706"/>
      <point x="250" y="701"/>
      <point x="243" y="695" type="curve" smooth="yes"/>
      <point x="236" y="689"/>
      <point x="231" y="681"/>
      <point x="226" y="673" type="curve" smooth="yes"/>
      <point x="221" y="665"/>
      <point x="218" y="656"/>
      <point x="217" y="646" type="curve" smooth="yes"/>
      <point x="216" y="637"/>
      <point x="216" y="628"/>
      <point x="219" y="620" type="curve" smooth="yes"/>
      <point x="222" y="612"/>
      <point x="226" y="604"/>
      <point x="231" y="598" type="curve" smooth="yes"/>
      <point x="236" y="592"/>
      <point x="243" y="588"/>
      <point x="251" y="584" type="curve" smooth="yes"/>
      <point x="259" y="580"/>
      <point x="268" y="579"/>
      <point x="277" y="579" type="curve" smooth="yes"/>
      <point x="286" y="579"/>
      <point x="296" y="580"/>
      <point x="305" y="584" type="curve" smooth="yes"/>
      <point x="314" y="588"/>
      <point x="322" y="592"/>
      <point x="329" y="598" type="curve" smooth="yes"/>
      <point x="336" y="604"/>
      <point x="341" y="612"/>
      <point x="346" y="620" type="curve" smooth="yes"/>
      <point x="351" y="628"/>
      <point x="354" y="637"/>
      <point x="355" y="646" type="curve" smooth="yes"/>
    </contour>
  </outline>
</glyph>
<glyph name="logicalnot" format="1">
  <advance width="510"/>
  <unicode hex="00AC"/>
  <note>
    logicalnot
  </note>
  <outline>
    <contour>
      <point x="40" y="382" type="line"/>
      <point x="28" y="290" type="line"/>
      <point x="367" y="290" type="line"/>
      <point x="350" y="148" type="line"/>
      <point x="454" y="148" type="line"/>
      <point x="483" y="382" type="line"/>
    </contour>
  </outline>
</glyph>
<glyph name="degree" format="1">
  <advance width="397"/>
  <unicode hex="00B0"/>
  <note>
    degree
  </note>
  <outline>
    <contour>
      <point x="22" y="539"/>
      <point x="25" y="517"/>
      <point x="31" y="496" type="curve" smooth="yes"/>
      <point x="37" y="475"/>
      <point x="46" y="458"/>
      <point x="60" y="442" type="curve" smooth="yes"/>
      <point x="74" y="426"/>
      <point x="91" y="414"/>
      <point x="111" y="405" type="curve" smooth="yes"/>
      <point x="131" y="396"/>
      <point x="153" y="392"/>
      <point x="177" y="392" type="curve" smooth="yes"/>
      <point x="201" y="392"/>
      <point x="225" y="396"/>
      <point x="247" y="405" type="curve" smooth="yes"/>
      <point x="269" y="414"/>
      <point x="289" y="426"/>
      <point x="307" y="442" type="curve" smooth="yes"/>
      <point x="325" y="458"/>
      <point x="338" y="475"/>
      <point x="350" y="496" type="curve" smooth="yes"/>
      <point x="362" y="517"/>
      <point x="369" y="539"/>
      <point x="372" y="562" type="curve" smooth="yes"/>
      <point x="375" y="586"/>
      <point x="373" y="607"/>
      <point x="367" y="628" type="curve" smooth="yes"/>
      <point x="361" y="649"/>
      <point x="350" y="667"/>
      <point x="336" y="682" type="curve" smooth="yes"/>
      <point x="322" y="697"/>
      <point x="305" y="710"/>
      <point x="285" y="719" type="curve" smooth="yes"/>
      <point x="265" y="728"/>
      <point x="243" y="732"/>
      <point x="219" y="732" type="curve" smooth="yes"/>
      <point x="195" y="732"/>
      <point x="171" y="728"/>
      <point x="149" y="719" type="curve" smooth="yes"/>
      <point x="127" y="710"/>
      <point x="107" y="697"/>
      <point x="90" y="682" type="curve" smooth="yes"/>
      <point x="73" y="667"/>
      <point x="58" y="649"/>
      <point x="47" y="628" type="curve" smooth="yes"/>
      <point x="36" y="607"/>
      <point x="28" y="586"/>
      <point x="25" y="562" type="curve" smooth="yes"/>
    </contour>
    <contour>
      <point x="113" y="573"/>
      <point x="116" y="585"/>
      <point x="122" y="596" type="curve" smooth="yes"/>
      <point x="128" y="607"/>
      <point x="135" y="616"/>
      <point x="144" y="624" type="curve" smooth="yes"/>
      <point x="153" y="632"/>
      <point x="163" y="638"/>
      <point x="174" y="643" type="curve" smooth="yes"/>
      <point x="185" y="648"/>
      <point x="197" y="650"/>
      <point x="209" y="650" type="curve" smooth="yes"/>
      <point x="221" y="650"/>
      <point x="232" y="648"/>
      <point x="242" y="643" type="curve" smooth="yes"/>
      <point x="252" y="638"/>
      <point x="261" y="632"/>
      <point x="268" y="624" type="curve" smooth="yes"/>
      <point x="275" y="616"/>
      <point x="280" y="607"/>
      <point x="283" y="596" type="curve" smooth="yes"/>
      <point x="286" y="585"/>
      <point x="287" y="573"/>
      <point x="285" y="560" type="curve" smooth="yes"/>
      <point x="283" y="548"/>
      <point x="280" y="537"/>
      <point x="274" y="526" type="curve" smooth="yes"/>
      <point x="268" y="515"/>
      <point x="261" y="506"/>
      <point x="252" y="498" type="curve" smooth="yes"/>
      <point x="243" y="490"/>
      <point x="233" y="485"/>
      <point x="222" y="480" type="curve"/>
      <point x="211" y="476"/>
      <point x="199" y="473"/>
      <point x="187" y="473" type="curve" smooth="yes"/>
      <point x="175" y="473"/>
      <point x="164" y="476"/>
      <point x="154" y="480" type="curve" smooth="yes"/>
      <point x="144" y="484"/>
      <point x="135" y="490"/>
      <point x="128" y="498" type="curve" smooth="yes"/>
      <point x="121" y="506"/>
      <point x="116" y="515"/>
      <point x="113" y="526" type="curve" smooth="yes"/>
      <point x="110" y="537"/>
      <point x="109" y="548"/>
      <point x="111" y="560" type="curve" smooth="yes"/>
    </contour>
  </outline>
</glyph>
<glyph name="threesuperior" format="1">
  <advance width="329"/>
  <unicode hex="00B3"/>
  <note>
    threesuperior
  </note>
  <outline>
    <contour>
      <point x="182" y="824"/>
      <point x="166" y="822"/>
      <point x="150" y="818" type="curve" smooth="yes"/>
      <point x="134" y="814"/>
      <point x="121" y="806"/>
      <point x="108" y="797" type="curve" smooth="yes"/>
      <point x="95" y="788"/>
      <point x="84" y="776"/>
      <point x="74" y="762" type="curve" smooth="yes"/>
      <point x="64" y="748"/>
      <point x="57" y="731"/>
      <point x="52" y="712" type="curve"/>
      <point x="97" y="704" type="line" smooth="yes"/>
      <point x="102" y="703"/>
      <point x="106" y="703"/>
      <point x="110" y="703" type="curve" smooth="yes"/>
      <point x="117" y="703"/>
      <point x="122" y="705"/>
      <point x="126" y="708" type="curve" smooth="yes"/>
      <point x="130" y="711"/>
      <point x="135" y="715"/>
      <point x="139" y="722" type="curve" smooth="yes"/>
      <point x="144" y="731"/>
      <point x="149" y="738"/>
      <point x="157" y="744" type="curve" smooth="yes"/>
      <point x="165" y="750"/>
      <point x="174" y="752"/>
      <point x="186" y="752" type="curve" smooth="yes"/>
      <point x="199" y="752"/>
      <point x="208" y="748"/>
      <point x="214" y="741" type="curve" smooth="yes"/>
      <point x="220" y="734"/>
      <point x="222" y="724"/>
      <point x="220" y="712" type="curve" smooth="yes"/>
      <point x="219" y="705"/>
      <point x="217" y="699"/>
      <point x="214" y="693" type="curve" smooth="yes"/>
      <point x="211" y="687"/>
      <point x="207" y="683"/>
      <point x="201" y="679" type="curve" smooth="yes"/>
      <point x="195" y="675"/>
      <point x="188" y="672"/>
      <point x="179" y="670" type="curve" smooth="yes"/>
      <point x="170" y="668"/>
      <point x="158" y="666"/>
      <point x="144" y="666" type="curve"/>
      <point x="137" y="608" type="line"/>
      <point x="151" y="608"/>
      <point x="163" y="608"/>
      <point x="172" y="606" type="curve"/>
      <point x="181" y="605"/>
      <point x="188" y="602"/>
      <point x="193" y="598" type="curve" smooth="yes"/>
      <point x="198" y="594"/>
      <point x="201" y="590"/>
      <point x="203" y="584" type="curve" smooth="yes"/>
      <point x="205" y="578"/>
      <point x="205" y="570"/>
      <point x="204" y="561" type="curve" smooth="yes"/>
      <point x="203" y="549"/>
      <point x="197" y="539"/>
      <point x="188" y="531" type="curve" smooth="yes"/>
      <point x="179" y="523"/>
      <point x="167" y="519"/>
      <point x="152" y="519" type="curve" smooth="yes"/>
      <point x="145" y="519"/>
      <point x="139" y="520"/>
      <point x="134" y="522" type="curve" smooth="yes"/>
      <point x="129" y="524"/>
      <point x="125" y="527"/>
      <point x="121" y="530" type="curve" smooth="yes"/>
      <point x="117" y="533"/>
      <point x="114" y="536"/>
      <point x="112" y="540" type="curve" smooth="yes"/>
      <point x="110" y="544"/>
      <point x="109" y="548"/>
      <point x="107" y="552" type="curve"/>
      <point x="103" y="561"/>
      <point x="95" y="566"/>
      <point x="83" y="566" type="curve" smooth="yes"/>
      <point x="77" y="566"/>
      <point x="70" y="565"/>
      <point x="62" y="562" type="curve" smooth="yes"/>
      <point x="22" y="546" type="line"/>
      <point x="26" y="527"/>
      <point x="31" y="512"/>
      <point x="38" y="499" type="curve" smooth="yes"/>
      <point x="45" y="486"/>
      <point x="54" y="476"/>
      <point x="64" y="468" type="curve" smooth="yes"/>
      <point x="74" y="460"/>
      <point x="86" y="455"/>
      <point x="100" y="451" type="curve" smooth="yes"/>
      <point x="114" y="447"/>
      <point x="130" y="446"/>
      <point x="148" y="446" type="curve" smooth="yes"/>
      <point x="164" y="446"/>
      <point x="180" y="448"/>
      <point x="196" y="453" type="curve" smooth="yes"/>
      <point x="212" y="458"/>
      <point x="227" y="465"/>
      <point x="241" y="475" type="curve" smooth="yes"/>
      <point x="255" y="485"/>
      <point x="266" y="497"/>
      <point x="275" y="512" type="curve" smooth="yes"/>
      <point x="284" y="527"/>
      <point x="290" y="544"/>
      <point x="293" y="565" type="curve"/>
      <point x="295" y="585"/>
      <point x="293" y="601"/>
      <point x="284" y="613" type="curve" smooth="yes"/>
      <point x="275" y="625"/>
      <point x="261" y="634"/>
      <point x="242" y="641" type="curve"/>
      <point x="262" y="649"/>
      <point x="277" y="661"/>
      <point x="287" y="675" type="curve" smooth="yes"/>
      <point x="297" y="689"/>
      <point x="304" y="707"/>
      <point x="307" y="728" type="curve" smooth="yes"/>
      <point x="309" y="740"/>
      <point x="307" y="752"/>
      <point x="303" y="764" type="curve" smooth="yes"/>
      <point x="299" y="776"/>
      <point x="292" y="785"/>
      <point x="283" y="794" type="curve" smooth="yes"/>
      <point x="274" y="803"/>
      <point x="263" y="810"/>
      <point x="249" y="816" type="curve" smooth="yes"/>
      <point x="235" y="822"/>
      <point x="218" y="824"/>
      <point x="199" y="824" type="curve" smooth="yes"/>
    </contour>
  </outline>
</glyph>
<glyph name="onequarter" format="1">
  <advance width="664"/>
  <unicode hex="00BC"/>
  <note>
    onequarter
  </note>
  <outline>
    <contour>
      <point x="644" y="723" type="line"/>
      <point x="592" y="723" type="line" smooth="yes"/>
      <point x="577" y="723"/>
      <point x="563" y="719"/>
      <point x="552" y="712" type="curve" smooth="yes"/>
      <point x="541" y="705"/>
      <point x="531" y="695"/>
      <point x="522" y="682" type="curve" smooth="yes"/>
      <point x="21" y="0" type="line"/>
      <point x="74" y="0" type="line" smooth="yes"/>
      <point x="87" y="0"/>
      <point x="99" y="3"/>
      <point x="109" y="8" type="curve" smooth="yes"/>
      <point x="119" y="13"/>
      <point x="130" y="22"/>
      <point x="140" y="36" type="curve" smooth="yes"/>
    </contour>
    <contour>
      <point x="585" y="141" type="line"/>
      <point x="613" y="370" type="line"/>
      <point x="528" y="370" type="line"/>
      <point x="332" y="137" type="line"/>
      <point x="335" y="99" type="line"/>
      <point x="335" y="94"/>
      <point x="337" y="90"/>
      <point x="341" y="86" type="curve" smooth="yes"/>
      <point x="345" y="82"/>
      <point x="351" y="80"/>
      <point x="359" y="80" type="curve" smooth="yes"/>
      <point x="504" y="80" type="line"/>
      <point x="494" y="0" type="line"/>
      <point x="568" y="0" type="line"/>
      <point x="578" y="80" type="line"/>
      <point x="608" y="80" type="line" smooth="yes"/>
      <point x="613" y="80"/>
      <point x="618" y="83"/>
      <point x="621" y="86" type="curve" smooth="yes"/>
      <point x="624" y="89"/>
      <point x="626" y="93"/>
      <point x="627" y="97" type="curve"/>
      <point x="632" y="141" type="line"/>
    </contour>
    <contour>
      <point x="29" y="410" type="line"/>
      <point x="22" y="353" type="line"/>
      <point x="238" y="353" type="line"/>
      <point x="245" y="410" type="line"/>
      <point x="187" y="410" type="line"/>
      <point x="226" y="724" type="line"/>
      <point x="151" y="724" type="line"/>
      <point x="23" y="627" type="line"/>
      <point x="46" y="589" type="line"/>
      <point x="47" y="586"/>
      <point x="49" y="584"/>
      <point x="53" y="582" type="curve" smooth="yes"/>
      <point x="57" y="580"/>
      <point x="62" y="579"/>
      <point x="67" y="579" type="curve" smooth="yes"/>
      <point x="73" y="579"/>
      <point x="78" y="581"/>
      <point x="84" y="585" type="curve"/>
      <point x="127" y="616" type="line"/>
      <point x="121" y="590" type="line"/>
      <point x="99" y="410" type="line"/>
    </contour>
    <contour>
      <point x="511" y="141" type="line"/>
      <point x="414" y="141" type="line"/>
      <point x="532" y="280" type="line"/>
      <point x="529" y="270"/>
      <point x="528" y="260"/>
      <point x="526" y="251" type="curve" smooth="yes"/>
      <point x="524" y="242"/>
      <point x="523" y="233"/>
      <point x="522" y="225" type="curve" smooth="yes"/>
    </contour>
  </outline>
</glyph>
<glyph name="Acircumflex" format="1">
  <advance width="823"/>
  <unicode hex="00C2"/>
  <note>
    Acircumflex
  </note>
  <outline>
    <contour>
      <point x="780" y="79"/>
      <point x="763" y="87"/>
      <point x="733" y="100" type="curve"/>
      <point x="565" y="723" type="line"/>
      <point x="427" y="723" type="line"/>
      <point x="106" y="100" type="line"/>
      <point x="73" y="87"/>
      <point x="54" y="79"/>
      <point x="48" y="77" type="curve"/>
      <point x="34" y="71"/>
      <point x="26" y="63"/>
      <point x="25" y="51" type="curve" smooth="yes"/>
      <point x="19" y="0" type="line"/>
      <point x="54" y="0" type="line"/>
      <point x="133" y="0" type="line"/>
      <point x="149" y="0" type="line"/>
      <point x="159" y="0" type="line"/>
      <point x="263" y="0" type="line"/>
      <point x="270" y="51" type="line"/>
      <point x="271" y="63"/>
      <point x="266" y="71"/>
      <point x="253" y="77" type="curve" smooth="yes"/>
      <point x="251" y="78"/>
      <point x="244" y="80"/>
      <point x="234" y="85" type="curve"/>
      <point x="237" y="91" type="line"/>
      <point x="287" y="194" type="line"/>
      <point x="575" y="194" type="line"/>
      <point x="599" y="96" type="line"/>
      <point x="601" y="85" type="line"/>
      <point x="590" y="80"/>
      <point x="583" y="78"/>
      <point x="580" y="77" type="curve"/>
      <point x="566" y="71"/>
      <point x="558" y="63"/>
      <point x="557" y="51" type="curve" smooth="yes"/>
      <point x="551" y="0" type="line"/>
      <point x="656" y="0" type="line"/>
      <point x="665" y="0" type="line"/>
      <point x="682" y="0" type="line"/>
      <point x="760" y="0" type="line"/>
      <point x="795" y="0" type="line"/>
      <point x="802" y="51" type="line"/>
      <point x="803" y="63"/>
      <point x="798" y="72"/>
      <point x="785" y="77" type="curve" smooth="yes"/>
    </contour>
    <contour>
      <point x="443" y="513" type="line"/>
      <point x="449" y="524"/>
      <point x="455" y="536"/>
      <point x="461" y="551" type="curve" smooth="yes"/>
      <point x="467" y="566"/>
      <point x="473" y="581"/>
      <point x="480" y="598" type="curve"/>
      <point x="483" y="581"/>
      <point x="486" y="565"/>
      <point x="489" y="551" type="curve" smooth="yes"/>
      <point x="492" y="537"/>
      <point x="495" y="524"/>
      <point x="498" y="513" type="curve" smooth="yes"/>
      <point x="552" y="289" type="line"/>
      <point x="333" y="289" type="line"/>
    </contour>
    <contour>
      <point x="685" y="774" type="line"/>
      <point x="577" y="884" type="line"/>
      <point x="454" y="884" type="line"/>
      <point x="320" y="774" type="line"/>
      <point x="413" y="774" type="line" smooth="yes"/>
      <point x="418" y="774"/>
      <point x="424" y="775"/>
      <point x="430" y="776" type="curve" smooth="yes"/>
      <point x="436" y="777"/>
      <point x="441" y="779"/>
      <point x="445" y="782" type="curve"/>
      <point x="500" y="816" type="line"/>
      <point x="502" y="817"/>
      <point x="504" y="818"/>
      <point x="505" y="819" type="curve" smooth="yes"/>
      <point x="508" y="822" type="line"/>
      <point x="509" y="821"/>
      <point x="510" y="819"/>
      <point x="511" y="818" type="curve" smooth="yes"/>
      <point x="512" y="817"/>
      <point x="514" y="817"/>
      <point x="515" y="816" type="curve"/>
      <point x="561" y="782" type="line"/>
      <point x="564" y="779"/>
      <point x="569" y="777"/>
      <point x="575" y="776" type="curve" smooth="yes"/>
      <point x="581" y="775"/>
      <point x="586" y="774"/>
      <point x="591" y="774" type="curve" smooth="yes"/>
    </contour>
  </outline>
</glyph>
<glyph name="Aring" format="1">
  <advance width="823"/>
  <unicode hex="00C5"/>
  <note>
    Aring
  </note>
  <outline>
    <contour>
      <point x="780" y="79"/>
      <point x="763" y="87"/>
      <point x="733" y="100" type="curve"/>
      <point x="565" y="723" type="line"/>
      <point x="427" y="723" type="line"/>
      <point x="106" y="100" type="line"/>
      <point x="73" y="87"/>
      <point x="54" y="79"/>
      <point x="48" y="77" type="curve"/>
      <point x="34" y="71"/>
      <point x="26" y="63"/>
      <point x="25" y="51" type="curve" smooth="yes"/>
      <point x="19" y="0" type="line"/>
      <point x="54" y="0" type="line"/>
      <point x="133" y="0" type="line"/>
      <point x="149" y="0" type="line"/>
      <point x="159" y="0" type="line"/>
      <point x="263" y="0" type="line"/>
      <point x="270" y="51" type="line"/>
      <point x="271" y="63"/>
      <point x="266" y="71"/>
      <point x="253" y="77" type="curve" smooth="yes"/>
      <point x="251" y="78"/>
      <point x="244" y="80"/>
      <point x="234" y="85" type="curve"/>
      <point x="237" y="91" type="line"/>
      <point x="287" y="194" type="line"/>
      <point x="575" y="194" type="line"/>
      <point x="599" y="96" type="line"/>
      <point x="601" y="85" type="line"/>
      <point x="590" y="80"/>
      <point x="583" y="78"/>
      <point x="580" y="77" type="curve"/>
      <point x="566" y="71"/>
      <point x="558" y="63"/>
      <point x="557" y="51" type="curve" smooth="yes"/>
      <point x="551" y="0" type="line"/>
      <point x="656" y="0" type="line"/>
      <point x="665" y="0" type="line"/>
      <point x="682" y="0" type="line"/>
      <point x="760" y="0" type="line"/>
      <point x="795" y="0" type="line"/>
      <point x="802" y="51" type="line"/>
      <point x="803" y="63"/>
      <point x="798" y="72"/>
      <point x="785" y="77" type="curve" smooth="yes"/>
    </contour>
    <contour>
      <point x="443" y="513" type="line"/>
      <point x="449" y="524"/>
      <point x="455" y="536"/>
      <point x="461" y="551" type="curve" smooth="yes"/>
      <point x="467" y="566"/>
      <point x="473" y="581"/>
      <point x="480" y="598" type="curve"/>
      <point x="483" y="581"/>
      <point x="486" y="565"/>
      <point x="489" y="551" type="curve" smooth="yes"/>
      <point x="492" y="537"/>
      <point x="495" y="524"/>
      <point x="498" y="513" type="curve" smooth="yes"/>
      <point x="552" y="289" type="line"/>
      <point x="333" y="289" type="line"/>
    </contour>
    <contour>
      <point x="405" y="828"/>
      <point x="407" y="815"/>
      <point x="411" y="803" type="curve" smooth="yes"/>
      <point x="415" y="791"/>
      <point x="422" y="782"/>
      <point x="430" y="774" type="curve" smooth="yes"/>
      <point x="438" y="766"/>
      <point x="448" y="758"/>
      <point x="460" y="754" type="curve" smooth="yes"/>
      <point x="472" y="750"/>
      <point x="484" y="748"/>
      <point x="498" y="748" type="curve" smooth="yes"/>
      <point x="512" y="748"/>
      <point x="527" y="750"/>
      <point x="540" y="754" type="curve" smooth="yes"/>
      <point x="553" y="758"/>
      <point x="564" y="766"/>
      <point x="575" y="774" type="curve" smooth="yes"/>
      <point x="586" y="782"/>
      <point x="595" y="791"/>
      <point x="602" y="803" type="curve" smooth="yes"/>
      <point x="609" y="815"/>
      <point x="613" y="827"/>
      <point x="615" y="841" type="curve" smooth="yes"/>
      <point x="617" y="855"/>
      <point x="616" y="868"/>
      <point x="612" y="880" type="curve" smooth="yes"/>
      <point x="608" y="892"/>
      <point x="601" y="902"/>
      <point x="592" y="910" type="curve" smooth="yes"/>
      <point x="583" y="918"/>
      <point x="573" y="925"/>
      <point x="561" y="930" type="curve" smooth="yes"/>
      <point x="549" y="935"/>
      <point x="536" y="937"/>
      <point x="522" y="937" type="curve" smooth="yes"/>
      <point x="508" y="937"/>
      <point x="495" y="935"/>
      <point x="482" y="930" type="curve" smooth="yes"/>
      <point x="469" y="925"/>
      <point x="457" y="918"/>
      <point x="447" y="910" type="curve" smooth="yes"/>
      <point x="437" y="902"/>
      <point x="428" y="892"/>
      <point x="421" y="880" type="curve" smooth="yes"/>
      <point x="414" y="868"/>
      <point x="409" y="856"/>
      <point x="407" y="842" type="curve" smooth="yes"/>
    </contour>
    <contour>
      <point x="468" y="855"/>
      <point x="473" y="866"/>
      <point x="482" y="874" type="curve" smooth="yes"/>
      <point x="491" y="882"/>
      <point x="502" y="886"/>
      <point x="517" y="886" type="curve" smooth="yes"/>
      <point x="530" y="886"/>
      <point x="541" y="882"/>
      <point x="548" y="874" type="curve" smooth="yes"/>
      <point x="555" y="866"/>
      <point x="558" y="855"/>
      <point x="556" y="841" type="curve" smooth="yes"/>
      <point x="554" y="828"/>
      <point x="549" y="817"/>
      <point x="540" y="809" type="curve" smooth="yes"/>
      <point x="531" y="801"/>
      <point x="519" y="797"/>
      <point x="506" y="797" type="curve" smooth="yes"/>
      <point x="491" y="797"/>
      <point x="481" y="801"/>
      <point x="474" y="809" type="curve" smooth="yes"/>
      <point x="467" y="817"/>
      <point x="464" y="828"/>
      <point x="466" y="841" type="curve" smooth="yes"/>
    </contour>
  </outline>
</glyph>
<glyph name="Iacute" format="1">
  <advance width="484"/>
  <unicode hex="00CD"/>
  <note>
    Iacute
  </note>
  <outline>
    <contour>
      <point x="375" y="637"/>
      <point x="385" y="647"/>
      <point x="387" y="664" type="curve" smooth="yes"/>
      <point x="394" y="723" type="line"/>
      <point x="319" y="723" type="line"/>
      <point x="184" y="723" type="line"/>
      <point x="108" y="723" type="line"/>
      <point x="101" y="664" type="line" smooth="yes"/>
      <point x="99" y="647"/>
      <point x="106" y="637"/>
      <point x="122" y="633" type="curve"/>
      <point x="123" y="633"/>
      <point x="125" y="633"/>
      <point x="128" y="632" type="curve"/>
      <point x="131" y="632"/>
      <point x="135" y="630"/>
      <point x="142" y="629" type="curve" smooth="yes"/>
      <point x="149" y="628"/>
      <point x="159" y="626"/>
      <point x="171" y="624" type="curve"/>
      <point x="107" y="99" type="line"/>
      <point x="94" y="97"/>
      <point x="84" y="95"/>
      <point x="77" y="94" type="curve" smooth="yes"/>
      <point x="70" y="93"/>
      <point x="64" y="91"/>
      <point x="61" y="91" type="curve" smooth="yes"/>
      <point x="58" y="91"/>
      <point x="56" y="90"/>
      <point x="55" y="90" type="curve"/>
      <point x="38" y="86"/>
      <point x="28" y="76"/>
      <point x="26" y="59" type="curve" smooth="yes"/>
      <point x="19" y="0" type="line"/>
      <point x="95" y="0" type="line"/>
      <point x="230" y="0" type="line"/>
      <point x="305" y="0" type="line"/>
      <point x="313" y="59" type="line" smooth="yes"/>
      <point x="315" y="76"/>
      <point x="308" y="86"/>
      <point x="292" y="90" type="curve"/>
      <point x="291" y="90"/>
      <point x="288" y="91"/>
      <point x="285" y="91" type="curve" smooth="yes"/>
      <point x="282" y="91"/>
      <point x="278" y="93"/>
      <point x="271" y="94" type="curve" smooth="yes"/>
      <point x="264" y="95"/>
      <point x="254" y="97"/>
      <point x="242" y="99" type="curve"/>
      <point x="306" y="624" type="line"/>
      <point x="319" y="626"/>
      <point x="330" y="628"/>
      <point x="337" y="629" type="curve" smooth="yes"/>
      <point x="344" y="630"/>
      <point x="349" y="632"/>
      <point x="352" y="632" type="curve" smooth="yes"/>
      <point x="355" y="632"/>
      <point x="356" y="633"/>
      <point x="358" y="633" type="curve"/>
    </contour>
    <contour>
      <point x="467" y="896" type="line"/>
      <point x="329" y="896" type="line" smooth="yes"/>
      <point x="322" y="896"/>
      <point x="317" y="895"/>
      <point x="312" y="895" type="curve" smooth="yes"/>
      <point x="307" y="895"/>
      <point x="303" y="894"/>
      <point x="299" y="892" type="curve"/>
      <point x="295" y="891"/>
      <point x="292" y="889"/>
      <point x="288" y="886" type="curve" smooth="yes"/>
      <point x="284" y="883"/>
      <point x="279" y="880"/>
      <point x="275" y="876" type="curve"/>
      <point x="165" y="774" type="line"/>
      <point x="262" y="774" type="line" smooth="yes"/>
      <point x="267" y="774"/>
      <point x="270" y="775"/>
      <point x="274" y="775" type="curve" smooth="yes"/>
      <point x="278" y="775"/>
      <point x="281" y="776"/>
      <point x="284" y="777" type="curve" smooth="yes"/>
      <point x="287" y="778"/>
      <point x="291" y="779"/>
      <point x="294" y="781" type="curve" smooth="yes"/>
      <point x="297" y="783"/>
      <point x="301" y="784"/>
      <point x="305" y="787" type="curve"/>
    </contour>
  </outline>
</glyph>
<glyph name="Idieresis" format="1">
  <advance width="459"/>
  <unicode hex="00CF"/>
  <note>
    Idieresis
  </note>
  <outline>
    <contour>
      <point x="375" y="637"/>
      <point x="385" y="647"/>
      <point x="387" y="664" type="curve" smooth="yes"/>
      <point x="394" y="723" type="line"/>
      <point x="319" y="723" type="line"/>
      <point x="184" y="723" type="line"/>
      <point x="108" y="723" type="line"/>
      <point x="101" y="664" type="line" smooth="yes"/>
      <point x="99" y="647"/>
      <point x="106" y="637"/>
      <point x="122" y="633" type="curve"/>
      <point x="123" y="633"/>
      <point x="125" y="633"/>
      <point x="128" y="632" type="curve"/>
      <point x="131" y="632"/>
      <point x="135" y="630"/>
      <point x="142" y="629" type="curve" smooth="yes"/>
      <point x="149" y="628"/>
      <point x="159" y="626"/>
      <point x="171" y="624" type="curve"/>
      <point x="107" y="99" type="line"/>
      <point x="94" y="97"/>
      <point x="84" y="95"/>
      <point x="77" y="94" type="curve" smooth="yes"/>
      <point x="70" y="93"/>
      <point x="64" y="91"/>
      <point x="61" y="91" type="curve" smooth="yes"/>
      <point x="58" y="91"/>
      <point x="56" y="90"/>
      <point x="55" y="90" type="curve"/>
      <point x="38" y="86"/>
      <point x="28" y="76"/>
      <point x="26" y="59" type="curve" smooth="yes"/>
      <point x="19" y="0" type="line"/>
      <point x="95" y="0" type="line"/>
      <point x="230" y="0" type="line"/>
      <point x="305" y="0" type="line"/>
      <point x="313" y="59" type="line" smooth="yes"/>
      <point x="315" y="76"/>
      <point x="308" y="86"/>
      <point x="292" y="90" type="curve"/>
      <point x="291" y="90"/>
      <point x="288" y="91"/>
      <point x="285" y="91" type="curve" smooth="yes"/>
      <point x="282" y="91"/>
      <point x="278" y="93"/>
      <point x="271" y="94" type="curve" smooth="yes"/>
      <point x="264" y="95"/>
      <point x="254" y="97"/>
      <point x="242" y="99" type="curve"/>
      <point x="306" y="624" type="line"/>
      <point x="319" y="626"/>
      <point x="330" y="628"/>
      <point x="337" y="629" type="curve" smooth="yes"/>
      <point x="344" y="630"/>
      <point x="349" y="632"/>
      <point x="352" y="632" type="curve" smooth="yes"/>
      <point x="355" y="632"/>
      <point x="356" y="633"/>
      <point x="358" y="633" type="curve"/>
    </contour>
    <contour>
      <point x="227" y="843"/>
      <point x="226" y="851"/>
      <point x="223" y="859" type="curve" smooth="yes"/>
      <point x="220" y="867"/>
      <point x="217" y="875"/>
      <point x="211" y="881" type="curve" smooth="yes"/>
      <point x="205" y="887"/>
      <point x="199" y="891"/>
      <point x="191" y="895" type="curve" smooth="yes"/>
      <point x="183" y="899"/>
      <point x="174" y="901"/>
      <point x="165" y="901" type="curve" smooth="yes"/>
      <point x="156" y="901"/>
      <point x="147" y="899"/>
      <point x="139" y="895" type="curve" smooth="yes"/>
      <point x="131" y="891"/>
      <point x="124" y="887"/>
      <point x="117" y="881" type="curve" smooth="yes"/>
      <point x="110" y="875"/>
      <point x="105" y="867"/>
      <point x="100" y="859" type="curve" smooth="yes"/>
      <point x="95" y="851"/>
      <point x="93" y="843"/>
      <point x="92" y="834" type="curve" smooth="yes"/>
      <point x="91" y="825"/>
      <point x="91" y="816"/>
      <point x="94" y="808" type="curve" smooth="yes"/>
      <point x="97" y="800"/>
      <point x="100" y="793"/>
      <point x="105" y="787" type="curve" smooth="yes"/>
      <point x="110" y="781"/>
      <point x="117" y="776"/>
      <point x="124" y="773" type="curve" smooth="yes"/>
      <point x="131" y="770"/>
      <point x="140" y="768"/>
      <point x="149" y="768" type="curve" smooth="yes"/>
      <point x="158" y="768"/>
      <point x="167" y="770"/>
      <point x="176" y="773" type="curve" smooth="yes"/>
      <point x="185" y="776"/>
      <point x="192" y="781"/>
      <point x="199" y="787" type="curve" smooth="yes"/>
      <point x="206" y="793"/>
      <point x="212" y="800"/>
      <point x="217" y="808" type="curve" smooth="yes"/>
      <point x="222" y="816"/>
      <point x="225" y="825"/>
      <point x="226" y="834" type="curve" smooth="yes"/>
    </contour>
    <contour>
      <point x="443" y="842"/>
      <point x="441" y="851"/>
      <point x="439" y="859" type="curve" smooth="yes"/>
      <point x="437" y="867"/>
      <point x="433" y="875"/>
      <point x="428" y="881" type="curve" smooth="yes"/>
      <point x="423" y="887"/>
      <point x="416" y="891"/>
      <point x="408" y="895" type="curve" smooth="yes"/>
      <point x="400" y="899"/>
      <point x="392" y="901"/>
      <point x="383" y="901" type="curve" smooth="yes"/>
      <point x="374" y="901"/>
      <point x="365" y="899"/>
      <point x="356" y="895" type="curve" smooth="yes"/>
      <point x="347" y="891"/>
      <point x="340" y="887"/>
      <point x="333" y="881" type="curve" smooth="yes"/>
      <point x="326" y="875"/>
      <point x="321" y="867"/>
      <point x="316" y="859" type="curve" smooth="yes"/>
      <point x="311" y="851"/>
      <point x="309" y="842"/>
      <point x="308" y="833" type="curve" smooth="yes"/>
      <point x="307" y="824"/>
      <point x="307" y="816"/>
      <point x="310" y="808" type="curve" smooth="yes"/>
      <point x="313" y="800"/>
      <point x="317" y="793"/>
      <point x="322" y="787" type="curve" smooth="yes"/>
      <point x="327" y="781"/>
      <point x="333" y="776"/>
      <point x="341" y="773" type="curve" smooth="yes"/>
      <point x="349" y="770"/>
      <point x="358" y="768"/>
      <point x="367" y="768" type="curve" smooth="yes"/>
      <point x="376" y="768"/>
      <point x="384" y="770"/>
      <point x="393" y="773" type="curve" smooth="yes"/>
      <point x="402" y="776"/>
      <point x="409" y="781"/>
      <point x="416" y="787" type="curve" smooth="yes"/>
      <point x="423" y="793"/>
      <point x="429" y="800"/>
      <point x="433" y="808" type="curve" smooth="yes"/>
      <point x="437" y="816"/>
      <point x="441" y="824"/>
      <point x="442" y="833" type="curve" smooth="yes"/>
    </contour>
  </outline>
</glyph>
<glyph name="Eth" format="1">
  <advance width="794"/>
  <unicode hex="00D0"/>
  <note>
    Eth
  </note>
  <outline>
    <contour>
      <point x="750" y="552"/>
      <point x="729" y="590"/>
      <point x="701" y="622" type="curve" smooth="yes"/>
      <point x="673" y="654"/>
      <point x="638" y="678"/>
      <point x="595" y="696" type="curve" smooth="yes"/>
      <point x="552" y="714"/>
      <point x="504" y="723"/>
      <point x="449" y="723" type="curve" smooth="yes"/>
      <point x="184" y="723" type="line"/>
      <point x="108" y="723" type="line"/>
      <point x="101" y="664" type="line" smooth="yes"/>
      <point x="99" y="647"/>
      <point x="106" y="637"/>
      <point x="122" y="633" type="curve"/>
      <point x="130" y="632"/>
      <point x="129" y="632"/>
      <point x="171" y="624" type="curve"/>
      <point x="144" y="402" type="line"/>
      <point x="54" y="402" type="line"/>
      <point x="45" y="326" type="line"/>
      <point x="135" y="326" type="line"/>
      <point x="107" y="99" type="line"/>
      <point x="63" y="91"/>
      <point x="63" y="91"/>
      <point x="55" y="90" type="curve"/>
      <point x="38" y="86"/>
      <point x="28" y="76"/>
      <point x="26" y="59" type="curve" smooth="yes"/>
      <point x="19" y="0" type="line"/>
      <point x="95" y="0" type="line"/>
      <point x="360" y="0" type="line" smooth="yes"/>
      <point x="415" y="0"/>
      <point x="466" y="9"/>
      <point x="513" y="27" type="curve" smooth="yes"/>
      <point x="560" y="45"/>
      <point x="601" y="69"/>
      <point x="637" y="101" type="curve" smooth="yes"/>
      <point x="673" y="133"/>
      <point x="703" y="172"/>
      <point x="726" y="216" type="curve" smooth="yes"/>
      <point x="749" y="260"/>
      <point x="763" y="309"/>
      <point x="770" y="362" type="curve" smooth="yes"/>
      <point x="777" y="415"/>
      <point x="774" y="464"/>
      <point x="762" y="508" type="curve" smooth="yes"/>
    </contour>
    <contour>
      <point x="589" y="224"/>
      <point x="570" y="197"/>
      <point x="548" y="175" type="curve" smooth="yes"/>
      <point x="526" y="153"/>
      <point x="500" y="137"/>
      <point x="470" y="125" type="curve" smooth="yes"/>
      <point x="440" y="113"/>
      <point x="408" y="107"/>
      <point x="373" y="107" type="curve" smooth="yes"/>
      <point x="243" y="107" type="line"/>
      <point x="270" y="326" type="line"/>
      <point x="451" y="326" type="line"/>
      <point x="460" y="402" type="line"/>
      <point x="280" y="402" type="line"/>
      <point x="306" y="616" type="line"/>
      <point x="436" y="616" type="line" smooth="yes"/>
      <point x="471" y="616"/>
      <point x="502" y="611"/>
      <point x="529" y="599" type="curve" smooth="yes"/>
      <point x="556" y="587"/>
      <point x="577" y="570"/>
      <point x="594" y="548" type="curve" smooth="yes"/>
      <point x="611" y="526"/>
      <point x="623" y="499"/>
      <point x="630" y="468" type="curve" smooth="yes"/>
      <point x="637" y="437"/>
      <point x="638" y="402"/>
      <point x="633" y="362" type="curve" smooth="yes"/>
      <point x="628" y="322"/>
      <point x="619" y="286"/>
      <point x="604" y="255" type="curve" smooth="yes"/>
    </contour>
  </outline>
</glyph>
<glyph name="Uacute" format="1">
  <advance width="796"/>
  <unicode hex="00DA"/>
  <note>
    Uacute
  </note>
  <outline>
    <contour>
      <point x="702" y="723" type="line"/>
      <point x="568" y="723" type="line"/>
      <point x="488" y="723" type="line"/>
      <point x="480" y="664" type="line" smooth="yes"/>
      <point x="478" y="647"/>
      <point x="486" y="637"/>
      <point x="502" y="633" type="curve"/>
      <point x="503" y="633"/>
      <point x="506" y="632"/>
      <point x="509" y="632" type="curve" smooth="yes"/>
      <point x="512" y="632"/>
      <point x="518" y="630"/>
      <point x="526" y="629" type="curve" smooth="yes"/>
      <point x="534" y="628"/>
      <point x="544" y="626"/>
      <point x="556" y="624" type="curve"/>
      <point x="515" y="290" type="line" smooth="yes"/>
      <point x="512" y="262"/>
      <point x="504" y="237"/>
      <point x="494" y="215" type="curve" smooth="yes"/>
      <point x="484" y="193"/>
      <point x="471" y="174"/>
      <point x="455" y="158" type="curve" smooth="yes"/>
      <point x="439" y="142"/>
      <point x="420" y="131"/>
      <point x="398" y="122" type="curve" smooth="yes"/>
      <point x="376" y="113"/>
      <point x="353" y="109"/>
      <point x="327" y="109" type="curve" smooth="yes"/>
      <point x="301" y="109"/>
      <point x="278" y="113"/>
      <point x="259" y="122" type="curve" smooth="yes"/>
      <point x="240" y="131"/>
      <point x="223" y="142"/>
      <point x="211" y="158" type="curve" smooth="yes"/>
      <point x="199" y="174"/>
      <point x="191" y="194"/>
      <point x="186" y="216" type="curve" smooth="yes"/>
      <point x="181" y="238"/>
      <point x="181" y="263"/>
      <point x="184" y="291" type="curve" smooth="yes"/>
      <point x="225" y="624" type="line"/>
      <point x="238" y="626"/>
      <point x="248" y="628"/>
      <point x="256" y="629" type="curve" smooth="yes"/>
      <point x="264" y="630"/>
      <point x="271" y="632"/>
      <point x="274" y="632" type="curve" smooth="yes"/>
      <point x="277" y="632"/>
      <point x="279" y="633"/>
      <point x="281" y="633" type="curve"/>
      <point x="298" y="637"/>
      <point x="308" y="647"/>
      <point x="310" y="664" type="curve" smooth="yes"/>
      <point x="317" y="723" type="line"/>
      <point x="237" y="723" type="line"/>
      <point x="103" y="723" type="line"/>
      <point x="27" y="723" type="line"/>
      <point x="20" y="664" type="line" smooth="yes"/>
      <point x="18" y="647"/>
      <point x="25" y="637"/>
      <point x="41" y="633" type="curve"/>
      <point x="42" y="633"/>
      <point x="44" y="632"/>
      <point x="47" y="632" type="curve" smooth="yes"/>
      <point x="50" y="632"/>
      <point x="55" y="630"/>
      <point x="62" y="629" type="curve" smooth="yes"/>
      <point x="69" y="628"/>
      <point x="79" y="626"/>
      <point x="91" y="624" type="curve"/>
      <point x="50" y="290" type="line" smooth="yes"/>
      <point x="45" y="247"/>
      <point x="47" y="207"/>
      <point x="56" y="171" type="curve" smooth="yes"/>
      <point x="65" y="135"/>
      <point x="81" y="103"/>
      <point x="104" y="76" type="curve" smooth="yes"/>
      <point x="127" y="50"/>
      <point x="155" y="29"/>
      <point x="190" y="14" type="curve" smooth="yes"/>
      <point x="225" y="-1"/>
      <point x="267" y="-8"/>
      <point x="313" y="-8" type="curve" smooth="yes"/>
      <point x="359" y="-8"/>
      <point x="401" y="-1"/>
      <point x="440" y="14" type="curve" smooth="yes"/>
      <point x="479" y="29"/>
      <point x="513" y="50"/>
      <point x="542" y="76" type="curve" smooth="yes"/>
      <point x="571" y="103"/>
      <point x="596" y="135"/>
      <point x="614" y="171" type="curve" smooth="yes"/>
      <point x="632" y="207"/>
      <point x="644" y="247"/>
      <point x="649" y="290" type="curve" smooth="yes"/>
      <point x="690" y="624" type="line"/>
      <point x="703" y="626"/>
      <point x="713" y="628"/>
      <point x="720" y="629" type="curve" smooth="yes"/>
      <point x="727" y="630"/>
      <point x="733" y="632"/>
      <point x="736" y="632" type="curve" smooth="yes"/>
      <point x="739" y="632"/>
      <point x="740" y="633"/>
      <point x="742" y="633" type="curve"/>
      <point x="759" y="637"/>
      <point x="769" y="647"/>
      <point x="771" y="664" type="curve" smooth="yes"/>
      <point x="778" y="723" type="line"/>
    </contour>
    <contour>
      <point x="616" y="895" type="line"/>
      <point x="479" y="895" type="line"/>
      <point x="461" y="895" type="line" smooth="yes"/>
      <point x="456" y="895"/>
      <point x="453" y="894"/>
      <point x="449" y="892" type="curve"/>
      <point x="445" y="891"/>
      <point x="441" y="888"/>
      <point x="437" y="885" type="curve" smooth="yes"/>
      <point x="433" y="882"/>
      <point x="429" y="879"/>
      <point x="425" y="875" type="curve"/>
      <point x="314" y="774" type="line"/>
      <point x="411" y="774" type="line" smooth="yes"/>
      <point x="416" y="774"/>
      <point x="419" y="775"/>
      <point x="423" y="775" type="curve" smooth="yes"/>
      <point x="427" y="775"/>
      <point x="431" y="776"/>
      <point x="434" y="777" type="curve" smooth="yes"/>
      <point x="437" y="778"/>
      <point x="441" y="779"/>
      <point x="444" y="781" type="curve" smooth="yes"/>
      <point x="447" y="783"/>
      <point x="451" y="784"/>
      <point x="455" y="787" type="curve"/>
    </contour>
  </outline>
</glyph>
<glyph name="Thorn" format="1">
  <advance width="602"/>
  <unicode hex="00DE"/>
  <note>
    Thorn
  </note>
  <outline>
    <contour>
      <point x="169" y="130" type="line"/>
      <point x="270" y="130" type="line" smooth="yes"/>
      <point x="317" y="130"/>
      <point x="359" y="136"/>
      <point x="395" y="148" type="curve" smooth="yes"/>
      <point x="431" y="160"/>
      <point x="463" y="176"/>
      <point x="489" y="197" type="curve" smooth="yes"/>
      <point x="515" y="218"/>
      <point x="535" y="243"/>
      <point x="550" y="272" type="curve" smooth="yes"/>
      <point x="565" y="301"/>
      <point x="576" y="333"/>
      <point x="580" y="368" type="curve" smooth="yes"/>
      <point x="584" y="402"/>
      <point x="583" y="434"/>
      <point x="575" y="462" type="curve" smooth="yes"/>
      <point x="567" y="490"/>
      <point x="554" y="514"/>
      <point x="533" y="534" type="curve" smooth="yes"/>
      <point x="512" y="554"/>
      <point x="485" y="571"/>
      <point x="451" y="582" type="curve" smooth="yes"/>
      <point x="417" y="593"/>
      <point x="376" y="599"/>
      <point x="328" y="599" type="curve" smooth="yes"/>
      <point x="227" y="599" type="line"/>
      <point x="242" y="723" type="line"/>
      <point x="107" y="723" type="line"/>
      <point x="18" y="0" type="line"/>
      <point x="153" y="0" type="line"/>
    </contour>
    <contour>
      <point x="182" y="236" type="line"/>
      <point x="214" y="495" type="line"/>
      <point x="315" y="495" type="line" smooth="yes"/>
      <point x="340" y="495"/>
      <point x="360" y="492"/>
      <point x="378" y="486" type="curve" smooth="yes"/>
      <point x="396" y="480"/>
      <point x="410" y="472"/>
      <point x="421" y="461" type="curve" smooth="yes"/>
      <point x="432" y="450"/>
      <point x="439" y="437"/>
      <point x="443" y="421" type="curve" smooth="yes"/>
      <point x="447" y="405"/>
      <point x="447" y="387"/>
      <point x="445" y="368" type="curve" smooth="yes"/>
      <point x="443" y="348"/>
      <point x="437" y="329"/>
      <point x="429" y="313" type="curve" smooth="yes"/>
      <point x="421" y="297"/>
      <point x="410" y="283"/>
      <point x="397" y="271" type="curve" smooth="yes"/>
      <point x="384" y="259"/>
      <point x="368" y="251"/>
      <point x="349" y="245" type="curve" smooth="yes"/>
      <point x="330" y="239"/>
      <point x="308" y="236"/>
      <point x="283" y="236" type="curve" smooth="yes"/>
    </contour>
  </outline>
</glyph>
<glyph name="germandbls" format="1">
  <advance width="586"/>
  <unicode hex="00DF"/>
  <note>
    germandbls
  </note>
  <outline>
    <contour>
      <point x="330" y="736"/>
      <point x="293" y="729"/>
      <point x="259" y="717" type="curve" smooth="yes"/>
      <point x="225" y="705"/>
      <point x="196" y="688"/>
      <point x="171" y="666" type="curve" smooth="yes"/>
      <point x="146" y="644"/>
      <point x="125" y="620"/>
      <point x="109" y="590" type="curve" smooth="yes"/>
      <point x="93" y="560"/>
      <point x="83" y="527"/>
      <point x="79" y="492" type="curve" smooth="yes"/>
      <point x="18" y="0" type="line"/>
      <point x="142" y="0" type="line"/>
      <point x="202" y="488" type="line" smooth="yes"/>
      <point x="208" y="540"/>
      <point x="224" y="579"/>
      <point x="250" y="606" type="curve" smooth="yes"/>
      <point x="276" y="633"/>
      <point x="310" y="646"/>
      <point x="354" y="646" type="curve" smooth="yes"/>
      <point x="372" y="646"/>
      <point x="388" y="644"/>
      <point x="401" y="640" type="curve" smooth="yes"/>
      <point x="414" y="636"/>
      <point x="424" y="629"/>
      <point x="431" y="622" type="curve" smooth="yes"/>
      <point x="438" y="615"/>
      <point x="443" y="607"/>
      <point x="446" y="597" type="curve" smooth="yes"/>
      <point x="449" y="587"/>
      <point x="449" y="577"/>
      <point x="448" y="566" type="curve"/>
      <point x="446" y="552"/>
      <point x="441" y="539"/>
      <point x="433" y="529" type="curve" smooth="yes"/>
      <point x="425" y="519"/>
      <point x="415" y="509"/>
      <point x="403" y="500" type="curve" smooth="yes"/>
      <point x="391" y="491"/>
      <point x="379" y="482"/>
      <point x="366" y="474" type="curve" smooth="yes"/>
      <point x="353" y="466"/>
      <point x="340" y="456"/>
      <point x="328" y="445" type="curve" smooth="yes"/>
      <point x="316" y="434"/>
      <point x="306" y="422"/>
      <point x="297" y="408" type="curve" smooth="yes"/>
      <point x="288" y="394"/>
      <point x="283" y="379"/>
      <point x="281" y="360" type="curve" smooth="yes"/>
      <point x="278" y="337"/>
      <point x="280" y="317"/>
      <point x="287" y="302" type="curve" smooth="yes"/>
      <point x="294" y="287"/>
      <point x="304" y="274"/>
      <point x="316" y="264" type="curve" smooth="yes"/>
      <point x="328" y="254"/>
      <point x="342" y="245"/>
      <point x="357" y="237" type="curve" smooth="yes"/>
      <point x="372" y="229"/>
      <point x="385" y="221"/>
      <point x="397" y="213" type="curve" smooth="yes"/>
      <point x="409" y="205"/>
      <point x="420" y="195"/>
      <point x="428" y="185" type="curve" smooth="yes"/>
      <point x="436" y="175"/>
      <point x="438" y="162"/>
      <point x="436" y="146" type="curve" smooth="yes"/>
      <point x="434" y="126"/>
      <point x="426" y="109"/>
      <point x="411" y="97" type="curve" smooth="yes"/>
      <point x="396" y="85"/>
      <point x="379" y="78"/>
      <point x="358" y="78" type="curve" smooth="yes"/>
      <point x="343" y="78"/>
      <point x="330" y="81"/>
      <point x="320" y="85" type="curve" smooth="yes"/>
      <point x="310" y="89"/>
      <point x="301" y="94"/>
      <point x="293" y="99" type="curve" smooth="yes"/>
      <point x="285" y="104"/>
      <point x="278" y="109"/>
      <point x="272" y="113" type="curve" smooth="yes"/>
      <point x="266" y="117"/>
      <point x="259" y="120"/>
      <point x="251" y="120" type="curve" smooth="yes"/>
      <point x="243" y="120"/>
      <point x="236" y="118"/>
      <point x="231" y="115" type="curve" smooth="yes"/>
      <point x="226" y="112"/>
      <point x="221" y="108"/>
      <point x="217" y="102" type="curve"/>
      <point x="182" y="55" type="line"/>
      <point x="191" y="46"/>
      <point x="202" y="38"/>
      <point x="213" y="30" type="curve" smooth="yes"/>
      <point x="224" y="22"/>
      <point x="236" y="16"/>
      <point x="249" y="10" type="curve" smooth="yes"/>
      <point x="262" y="4"/>
      <point x="276" y="0"/>
      <point x="291" y="-3" type="curve" smooth="yes"/>
      <point x="306" y="-6"/>
      <point x="321" y="-8"/>
      <point x="336" y="-8" type="curve" smooth="yes"/>
      <point x="363" y="-8"/>
      <point x="388" y="-5"/>
      <point x="413" y="3" type="curve" smooth="yes"/>
      <point x="438" y="11"/>
      <point x="460" y="22"/>
      <point x="480" y="37" type="curve" smooth="yes"/>
      <point x="500" y="52"/>
      <point x="516" y="69"/>
      <point x="529" y="91" type="curve" smooth="yes"/>
      <point x="542" y="113"/>
      <point x="551" y="138"/>
      <point x="554" y="166" type="curve" smooth="yes"/>
      <point x="557" y="192"/>
      <point x="556" y="213"/>
      <point x="550" y="231" type="curve" smooth="yes"/>
      <point x="544" y="249"/>
      <point x="535" y="264"/>
      <point x="524" y="276" type="curve" smooth="yes"/>
      <point x="513" y="288"/>
      <point x="502" y="299"/>
      <point x="488" y="308" type="curve" smooth="yes"/>
      <point x="474" y="317"/>
      <point x="461" y="324"/>
      <point x="450" y="332" type="curve" smooth="yes"/>
      <point x="439" y="340"/>
      <point x="429" y="348"/>
      <point x="422" y="356" type="curve" smooth="yes"/>
      <point x="415" y="364"/>
      <point x="412" y="373"/>
      <point x="413" y="384" type="curve" smooth="yes"/>
      <point x="414" y="394"/>
      <point x="419" y="402"/>
      <point x="426" y="410" type="curve" smooth="yes"/>
      <point x="433" y="418"/>
      <point x="442" y="425"/>
      <point x="453" y="432" type="curve" smooth="yes"/>
      <point x="464" y="439"/>
      <point x="476" y="446"/>
      <point x="488" y="454" type="curve" smooth="yes"/>
      <point x="500" y="462"/>
      <point x="512" y="471"/>
      <point x="523" y="481" type="curve" smooth="yes"/>
      <point x="534" y="491"/>
      <point x="544" y="503"/>
      <point x="552" y="517" type="curve" smooth="yes"/>
      <point x="560" y="531"/>
      <point x="565" y="547"/>
      <point x="567" y="566" type="curve" smooth="yes"/>
      <point x="569" y="583"/>
      <point x="568" y="601"/>
      <point x="562" y="621" type="curve" smooth="yes"/>
      <point x="556" y="641"/>
      <point x="546" y="659"/>
      <point x="531" y="676" type="curve" smooth="yes"/>
      <point x="516" y="693"/>
      <point x="495" y="707"/>
      <point x="469" y="718" type="curve" smooth="yes"/>
      <point x="443" y="729"/>
      <point x="410" y="736"/>
      <point x="371" y="736" type="curve" smooth="yes"/>
    </contour>
  </outline>
</glyph>
<glyph name="eth" format="1">
  <advance width="553"/>
  <unicode hex="00F0"/>
  <note>
    eth
  </note>
  <outline>
    <contour>
      <point x="235" y="492" type="line"/>
      <point x="342" y="556" type="line"/>
      <point x="368" y="537"/>
      <point x="387" y="515"/>
      <point x="401" y="489" type="curve" smooth="yes"/>
      <point x="415" y="463"/>
      <point x="422" y="433"/>
      <point x="425" y="398" type="curve"/>
      <point x="407" y="420"/>
      <point x="386" y="436"/>
      <point x="361" y="448" type="curve" smooth="yes"/>
      <point x="336" y="460"/>
      <point x="309" y="466"/>
      <point x="277" y="466" type="curve" smooth="yes"/>
      <point x="242" y="466"/>
      <point x="210" y="459"/>
      <point x="180" y="447" type="curve" smooth="yes"/>
      <point x="150" y="435"/>
      <point x="124" y="418"/>
      <point x="102" y="397" type="curve" smooth="yes"/>
      <point x="80" y="376"/>
      <point x="61" y="353"/>
      <point x="47" y="325" type="curve" smooth="yes"/>
      <point x="33" y="297"/>
      <point x="24" y="268"/>
      <point x="20" y="237" type="curve" smooth="yes"/>
      <point x="15" y="199"/>
      <point x="18" y="164"/>
      <point x="27" y="134" type="curve" smooth="yes"/>
      <point x="36" y="104"/>
      <point x="49" y="79"/>
      <point x="68" y="58" type="curve" smooth="yes"/>
      <point x="87" y="37"/>
      <point x="111" y="20"/>
      <point x="139" y="9" type="curve" smooth="yes"/>
      <point x="167" y="-2"/>
      <point x="199" y="-7"/>
      <point x="234" y="-7" type="curve" smooth="yes"/>
      <point x="275" y="-7"/>
      <point x="313" y="0"/>
      <point x="347" y="14" type="curve" smooth="yes"/>
      <point x="381" y="28"/>
      <point x="410" y="48"/>
      <point x="435" y="75" type="curve" smooth="yes"/>
      <point x="460" y="102"/>
      <point x="480" y="135"/>
      <point x="496" y="173" type="curve" smooth="yes"/>
      <point x="512" y="211"/>
      <point x="523" y="255"/>
      <point x="529" y="304" type="curve" smooth="yes"/>
      <point x="533" y="338"/>
      <point x="534" y="370"/>
      <point x="532" y="400" type="curve" smooth="yes"/>
      <point x="530" y="430"/>
      <point x="525" y="457"/>
      <point x="517" y="482" type="curve" smooth="yes"/>
      <point x="509" y="507"/>
      <point x="498" y="530"/>
      <point x="485" y="551" type="curve" smooth="yes"/>
      <point x="472" y="572"/>
      <point x="458" y="591"/>
      <point x="441" y="608" type="curve"/>
      <point x="484" y="631" type="line"/>
      <point x="489" y="634"/>
      <point x="493" y="637"/>
      <point x="496" y="641" type="curve" smooth="yes"/>
      <point x="499" y="645"/>
      <point x="501" y="649"/>
      <point x="502" y="654" type="curve" smooth="yes"/>
      <point x="503" y="659"/>
      <point x="502" y="663"/>
      <point x="499" y="669" type="curve" smooth="yes"/>
      <point x="479" y="709" type="line"/>
      <point x="384" y="652" type="line"/>
      <point x="358" y="668"/>
      <point x="331" y="682"/>
      <point x="301" y="692" type="curve" smooth="yes"/>
      <point x="271" y="702"/>
      <point x="239" y="710"/>
      <point x="206" y="716" type="curve"/>
      <point x="187" y="674" type="line" smooth="yes"/>
      <point x="183" y="665"/>
      <point x="181" y="657"/>
      <point x="180" y="652" type="curve"/>
      <point x="179" y="642"/>
      <point x="180" y="634"/>
      <point x="185" y="628" type="curve" smooth="yes"/>
      <point x="190" y="622"/>
      <point x="196" y="618"/>
      <point x="204" y="616" type="curve"/>
      <point x="217" y="612"/>
      <point x="229" y="609"/>
      <point x="240" y="605" type="curve" smooth="yes"/>
      <point x="251" y="601"/>
      <point x="263" y="597"/>
      <point x="273" y="593" type="curve"/>
      <point x="233" y="572" type="line" smooth="yes"/>
      <point x="222" y="566"/>
      <point x="215" y="558"/>
      <point x="214" y="548" type="curve"/>
      <point x="213" y="542"/>
      <point x="214" y="536"/>
      <point x="217" y="531" type="curve"/>
    </contour>
    <contour>
      <point x="231" y="86"/>
      <point x="215" y="90"/>
      <point x="201" y="96" type="curve" smooth="yes"/>
      <point x="187" y="102"/>
      <point x="175" y="112"/>
      <point x="165" y="125" type="curve" smooth="yes"/>
      <point x="155" y="138"/>
      <point x="149" y="154"/>
      <point x="145" y="172" type="curve" smooth="yes"/>
      <point x="141" y="190"/>
      <point x="140" y="212"/>
      <point x="143" y="236" type="curve" smooth="yes"/>
      <point x="145" y="255"/>
      <point x="150" y="273"/>
      <point x="158" y="289" type="curve" smooth="yes"/>
      <point x="166" y="305"/>
      <point x="175" y="320"/>
      <point x="188" y="332" type="curve" smooth="yes"/>
      <point x="201" y="344"/>
      <point x="215" y="354"/>
      <point x="232" y="361" type="curve" smooth="yes"/>
      <point x="249" y="368"/>
      <point x="269" y="372"/>
      <point x="290" y="372" type="curve" smooth="yes"/>
      <point x="307" y="372"/>
      <point x="323" y="369"/>
      <point x="336" y="364" type="curve" smooth="yes"/>
      <point x="349" y="359"/>
      <point x="360" y="353"/>
      <point x="370" y="345" type="curve" smooth="yes"/>
      <point x="380" y="337"/>
      <point x="388" y="327"/>
      <point x="394" y="316" type="curve" smooth="yes"/>
      <point x="400" y="305"/>
      <point x="406" y="293"/>
      <point x="409" y="281" type="curve"/>
      <point x="404" y="246"/>
      <point x="396" y="216"/>
      <point x="386" y="191" type="curve" smooth="yes"/>
      <point x="376" y="166"/>
      <point x="364" y="147"/>
      <point x="350" y="131" type="curve" smooth="yes"/>
      <point x="336" y="115"/>
      <point x="320" y="104"/>
      <point x="303" y="97" type="curve" smooth="yes"/>
      <point x="286" y="90"/>
      <point x="267" y="86"/>
      <point x="248" y="86" type="curve" smooth="yes"/>
    </contour>
  </outline>
</glyph>
<glyph name="otilde" format="1">
  <advance width="553"/>
  <unicode hex="00F5"/>
  <note>
    otilde
  </note>
  <outline>
    <contour>
      <point x="270" y="521"/>
      <point x="234" y="514"/>
      <point x="201" y="502" type="curve" smooth="yes"/>
      <point x="168" y="490"/>
      <point x="140" y="473"/>
      <point x="115" y="450" type="curve" smooth="yes"/>
      <point x="90" y="427"/>
      <point x="69" y="400"/>
      <point x="53" y="367" type="curve" smooth="yes"/>
      <point x="37" y="334"/>
      <point x="26" y="298"/>
      <point x="21" y="258" type="curve" smooth="yes"/>
      <point x="16" y="217"/>
      <point x="18" y="181"/>
      <point x="26" y="148" type="curve" smooth="yes"/>
      <point x="34" y="115"/>
      <point x="48" y="87"/>
      <point x="67" y="64" type="curve" smooth="yes"/>
      <point x="86" y="41"/>
      <point x="111" y="23"/>
      <point x="141" y="11" type="curve" smooth="yes"/>
      <point x="171" y="-1"/>
      <point x="205" y="-7"/>
      <point x="243" y="-7" type="curve" smooth="yes"/>
      <point x="281" y="-7"/>
      <point x="317" y="-1"/>
      <point x="350" y="11" type="curve" smooth="yes"/>
      <point x="383" y="23"/>
      <point x="411" y="41"/>
      <point x="436" y="64" type="curve" smooth="yes"/>
      <point x="461" y="87"/>
      <point x="481" y="115"/>
      <point x="497" y="148" type="curve" smooth="yes"/>
      <point x="513" y="181"/>
      <point x="524" y="217"/>
      <point x="529" y="258" type="curve" smooth="yes"/>
      <point x="534" y="298"/>
      <point x="532" y="334"/>
      <point x="524" y="367" type="curve" smooth="yes"/>
      <point x="516" y="400"/>
      <point x="502" y="427"/>
      <point x="483" y="450" type="curve" smooth="yes"/>
      <point x="464" y="473"/>
      <point x="440" y="490"/>
      <point x="410" y="502" type="curve" smooth="yes"/>
      <point x="380" y="514"/>
      <point x="346" y="521"/>
      <point x="308" y="521" type="curve" smooth="yes"/>
    </contour>
    <contour>
      <point x="212" y="88"/>
      <point x="181" y="102"/>
      <point x="164" y="131" type="curve" smooth="yes"/>
      <point x="147" y="160"/>
      <point x="142" y="201"/>
      <point x="149" y="256" type="curve" smooth="yes"/>
      <point x="156" y="311"/>
      <point x="171" y="354"/>
      <point x="195" y="383" type="curve" smooth="yes"/>
      <point x="219" y="412"/>
      <point x="254" y="427"/>
      <point x="297" y="427" type="curve" smooth="yes"/>
      <point x="340" y="427"/>
      <point x="369" y="412"/>
      <point x="386" y="383" type="curve" smooth="yes"/>
      <point x="403" y="354"/>
      <point x="408" y="312"/>
      <point x="401" y="257" type="curve" smooth="yes"/>
      <point x="394" y="202"/>
      <point x="379" y="160"/>
      <point x="355" y="131" type="curve" smooth="yes"/>
      <point x="331" y="102"/>
      <point x="298" y="88"/>
      <point x="255" y="88" type="curve" smooth="yes"/>
    </contour>
    <contour>
      <point x="375" y="680"/>
      <point x="368" y="682"/>
      <point x="361" y="686" type="curve" smooth="yes"/>
      <point x="354" y="690"/>
      <point x="346" y="695"/>
      <point x="338" y="700" type="curve" smooth="yes"/>
      <point x="330" y="705"/>
      <point x="320" y="710"/>
      <point x="310" y="714" type="curve" smooth="yes"/>
      <point x="300" y="718"/>
      <point x="289" y="721"/>
      <point x="277" y="721" type="curve" smooth="yes"/>
      <point x="262" y="721"/>
      <point x="248" y="718"/>
      <point x="235" y="712" type="curve" smooth="yes"/>
      <point x="222" y="706"/>
      <point x="210" y="697"/>
      <point x="199" y="686" type="curve" smooth="yes"/>
      <point x="188" y="675"/>
      <point x="180" y="662"/>
      <point x="173" y="647" type="curve" smooth="yes"/>
      <point x="166" y="632"/>
      <point x="161" y="616"/>
      <point x="159" y="597" type="curve"/>
      <point x="235" y="597" type="line"/>
      <point x="237" y="611"/>
      <point x="241" y="620"/>
      <point x="247" y="626" type="curve" smooth="yes"/>
      <point x="253" y="632"/>
      <point x="261" y="635"/>
      <point x="271" y="635" type="curve" smooth="yes"/>
      <point x="278" y="635"/>
      <point x="285" y="633"/>
      <point x="292" y="629" type="curve" smooth="yes"/>
      <point x="299" y="625"/>
      <point x="308" y="620"/>
      <point x="316" y="615" type="curve" smooth="yes"/>
      <point x="324" y="610"/>
      <point x="333" y="605"/>
      <point x="343" y="601" type="curve" smooth="yes"/>
      <point x="353" y="597"/>
      <point x="364" y="594"/>
      <point x="376" y="594" type="curve" smooth="yes"/>
      <point x="391" y="594"/>
      <point x="405" y="597"/>
      <point x="418" y="603" type="curve" smooth="yes"/>
      <point x="431" y="609"/>
      <point x="443" y="617"/>
      <point x="453" y="628" type="curve" smooth="yes"/>
      <point x="463" y="639"/>
      <point x="472" y="652"/>
      <point x="479" y="667" type="curve" smooth="yes"/>
      <point x="486" y="682"/>
      <point x="491" y="699"/>
      <point x="493" y="718" type="curve"/>
      <point x="418" y="718" type="line"/>
      <point x="416" y="704"/>
      <point x="412" y="694"/>
      <point x="406" y="688" type="curve" smooth="yes"/>
      <point x="400" y="682"/>
      <point x="392" y="680"/>
      <point x="382" y="680" type="curve" smooth="yes"/>
    </contour>
  </outline>
</glyph>
<glyph name="odieresis" format="1">
  <advance width="553"/>
  <unicode hex="00F6"/>
  <note>
    odieresis
  </note>
  <outline>
    <contour>
      <point x="270" y="521"/>
      <point x="234" y="514"/>
      <point x="201" y="502" type="curve" smooth="yes"/>
      <point x="168" y="490"/>
      <point x="140" y="473"/>
      <point x="115" y="450" type="curve" smooth="yes"/>
      <point x="90" y="427"/>
      <point x="69" y="400"/>
      <point x="53" y="367" type="curve" smooth="yes"/>
      <point x="37" y="334"/>
      <point x="26" y="298"/>
      <point x="21" y="258" type="curve" smooth="yes"/>
      <point x="16" y="217"/>
      <point x="18" y="181"/>
      <point x="26" y="148" type="curve" smooth="yes"/>
      <point x="34" y="115"/>
      <point x="48" y="87"/>
      <point x="67" y="64" type="curve" smooth="yes"/>
      <point x="86" y="41"/>
      <point x="111" y="23"/>
      <point x="141" y="11" type="curve" smooth="yes"/>
      <point x="171" y="-1"/>
      <point x="205" y="-7"/>
      <point x="243" y="-7" type="curve" smooth="yes"/>
      <point x="281" y="-7"/>
      <point x="317" y="-1"/>
      <point x="350" y="11" type="curve" smooth="yes"/>
      <point x="383" y="23"/>
      <point x="411" y="41"/>
      <point x="436" y="64" type="curve" smooth="yes"/>
      <point x="461" y="87"/>
      <point x="481" y="115"/>
      <point x="497" y="148" type="curve" smooth="yes"/>
      <point x="513" y="181"/>
      <point x="524" y="217"/>
      <point x="529" y="258" type="curve" smooth="yes"/>
      <point x="534" y="298"/>
      <point x="532" y="334"/>
      <point x="524" y="367" type="curve" smooth="yes"/>
      <point x="516" y="400"/>
      <point x="502" y="427"/>
      <point x="483" y="450" type="curve" smooth="yes"/>
      <point x="464" y="473"/>
      <point x="440" y="490"/>
      <point x="410" y="502" type="curve" smooth="yes"/>
      <point x="380" y="514"/>
      <point x="346" y="521"/>
      <point x="308" y="521" type="curve" smooth="yes"/>
    </contour>
    <contour>
      <point x="212" y="88"/>
      <point x="181" y="102"/>
      <point x="164" y="131" type="curve" smooth="yes"/>
      <point x="147" y="160"/>
      <point x="142" y="201"/>
      <point x="149" y="256" type="curve" smooth="yes"/>
      <point x="156" y="311"/>
      <point x="171" y="354"/>
      <point x="195" y="383" type="curve" smooth="yes"/>
      <point x="219" y="412"/>
      <point x="254" y="427"/>
      <point x="297" y="427" type="curve" smooth="yes"/>
      <point x="340" y="427"/>
      <point x="369" y="412"/>
      <point x="386" y="383" type="curve" smooth="yes"/>
      <point x="403" y="354"/>
      <point x="408" y="312"/>
      <point x="401" y="257" type="curve" smooth="yes"/>
      <point x="394" y="202"/>
      <point x="379" y="160"/>
      <point x="355" y="131" type="curve" smooth="yes"/>
      <point x="331" y="102"/>
      <point x="298" y="88"/>
      <point x="255" y="88" type="curve" smooth="yes"/>
    </contour>
    <contour>
      <point x="301" y="656"/>
      <point x="300" y="665"/>
      <point x="297" y="673" type="curve" smooth="yes"/>
      <point x="294" y="681"/>
      <point x="291" y="690"/>
      <point x="285" y="696" type="curve" smooth="yes"/>
      <point x="279" y="702"/>
      <point x="272" y="707"/>
      <point x="264" y="711" type="curve" smooth="yes"/>
      <point x="256" y="715"/>
      <point x="247" y="716"/>
      <point x="238" y="716" type="curve" smooth="yes"/>
      <point x="229" y="716"/>
      <point x="221" y="715"/>
      <point x="212" y="711" type="curve" smooth="yes"/>
      <point x="203" y="707"/>
      <point x="195" y="702"/>
      <point x="188" y="696" type="curve" smooth="yes"/>
      <point x="181" y="690"/>
      <point x="175" y="681"/>
      <point x="170" y="673" type="curve" smooth="yes"/>
      <point x="165" y="665"/>
      <point x="163" y="656"/>
      <point x="162" y="646" type="curve" smooth="yes"/>
      <point x="161" y="637"/>
      <point x="161" y="628"/>
      <point x="164" y="620" type="curve" smooth="yes"/>
      <point x="167" y="612"/>
      <point x="170" y="604"/>
      <point x="176" y="598" type="curve" smooth="yes"/>
      <point x="182" y="592"/>
      <point x="188" y="588"/>
      <point x="196" y="584" type="curve" smooth="yes"/>
      <point x="204" y="580"/>
      <point x="212" y="579"/>
      <point x="221" y="579" type="curve" smooth="yes"/>
      <point x="230" y="579"/>
      <point x="240" y="580"/>
      <point x="249" y="584" type="curve" smooth="yes"/>
      <point x="258" y="588"/>
      <point x="266" y="592"/>
      <point x="273" y="598" type="curve" smooth="yes"/>
      <point x="280" y="604"/>
      <point x="286" y="612"/>
      <point x="291" y="620" type="curve" smooth="yes"/>
      <point x="296" y="628"/>
      <point x="299" y="637"/>
      <point x="300" y="646" type="curve" smooth="yes"/>
    </contour>
    <contour>
      <point x="488" y="656"/>
      <point x="487" y="665"/>
      <point x="484" y="673" type="curve" smooth="yes"/>
      <point x="481" y="681"/>
      <point x="478" y="690"/>
      <point x="472" y="696" type="curve" smooth="yes"/>
      <point x="466" y="702"/>
      <point x="460" y="706"/>
      <point x="452" y="710" type="curve" smooth="yes"/>
      <point x="444" y="714"/>
      <point x="435" y="716"/>
      <point x="426" y="716" type="curve" smooth="yes"/>
      <point x="417" y="716"/>
      <point x="407" y="714"/>
      <point x="398" y="710" type="curve" smooth="yes"/>
      <point x="389" y="706"/>
      <point x="382" y="702"/>
      <point x="375" y="696" type="curve" smooth="yes"/>
      <point x="368" y="690"/>
      <point x="362" y="681"/>
      <point x="357" y="673" type="curve" smooth="yes"/>
      <point x="352" y="665"/>
      <point x="350" y="656"/>
      <point x="349" y="646" type="curve" smooth="yes"/>
      <point x="348" y="637"/>
      <point x="348" y="628"/>
      <point x="351" y="620" type="curve" smooth="yes"/>
      <point x="354" y="612"/>
      <point x="358" y="604"/>
      <point x="363" y="598" type="curve" smooth="yes"/>
      <point x="368" y="592"/>
      <point x="375" y="588"/>
      <point x="383" y="584" type="curve" smooth="yes"/>
      <point x="391" y="580"/>
      <point x="400" y="579"/>
      <point x="409" y="579" type="curve" smooth="yes"/>
      <point x="418" y="579"/>
      <point x="427" y="580"/>
      <point x="436" y="584" type="curve" smooth="yes"/>
      <point x="445" y="588"/>
      <point x="453" y="592"/>
      <point x="460" y="598" type="curve" smooth="yes"/>
      <point x="467" y="604"/>
      <point x="473" y="612"/>
      <point x="478" y="620" type="curve" smooth="yes"/>
      <point x="483" y="628"/>
      <point x="486" y="637"/>
      <point x="487" y="646" type="curve" smooth="yes"/>
    </contour>
  </outline>
</glyph>
<glyph name="Eogonek" format="1">
  <advance width="658"/>
  <unicode hex="0118"/>
  <note>
    Eogonek
  </note>
  <outline>
    <contour>
      <point x="524" y="-101" type="line"/>
      <point x="523" y="-96"/>
      <point x="520" y="-93"/>
      <point x="514" y="-93" type="curve" smooth="yes"/>
      <point x="512" y="-93"/>
      <point x="510" y="-93"/>
      <point x="508" y="-94" type="curve" smooth="yes"/>
      <point x="506" y="-95"/>
      <point x="505" y="-96"/>
      <point x="502" y="-97" type="curve" smooth="yes"/>
      <point x="499" y="-98"/>
      <point x="496" y="-98"/>
      <point x="492" y="-99" type="curve" smooth="yes"/>
      <point x="488" y="-100"/>
      <point x="482" y="-100"/>
      <point x="476" y="-100" type="curve" smooth="yes"/>
      <point x="465" y="-100"/>
      <point x="456" y="-98"/>
      <point x="450" y="-92" type="curve" smooth="yes"/>
      <point x="444" y="-86"/>
      <point x="443" y="-78"/>
      <point x="444" y="-68" type="curve"/>
      <point x="445" y="-61"/>
      <point x="447" y="-54"/>
      <point x="451" y="-47" type="curve" smooth="yes"/>
      <point x="455" y="-40"/>
      <point x="459" y="-34"/>
      <point x="465" y="-28" type="curve" smooth="yes"/>
      <point x="471" y="-22"/>
      <point x="477" y="-17"/>
      <point x="484" y="-12" type="curve" smooth="yes"/>
      <point x="491" y="-7"/>
      <point x="498" y="-4"/>
      <point x="505" y="0" type="curve"/>
      <point x="551" y="0" type="line"/>
      <point x="559" y="70" type="line"/>
      <point x="564" y="108" type="line"/>
      <point x="574" y="191" type="line"/>
      <point x="570" y="191" type="line"/>
      <point x="558" y="191" type="line"/>
      <point x="517" y="191" type="line" smooth="yes"/>
      <point x="504" y="191"/>
      <point x="495" y="184"/>
      <point x="491" y="172" type="curve"/>
      <point x="490" y="167"/>
      <point x="486" y="153"/>
      <point x="476" y="108" type="curve"/>
      <point x="243" y="108" type="line"/>
      <point x="269" y="312" type="line"/>
      <point x="513" y="312" type="line"/>
      <point x="526" y="416" type="line"/>
      <point x="281" y="416" type="line"/>
      <point x="306" y="616" type="line"/>
      <point x="538" y="616" type="line"/>
      <point x="537" y="571"/>
      <point x="538" y="557"/>
      <point x="538" y="552" type="curve"/>
      <point x="539" y="540"/>
      <point x="546" y="533"/>
      <point x="559" y="533" type="curve" smooth="yes"/>
      <point x="600" y="533" type="line"/>
      <point x="612" y="533" type="line"/>
      <point x="616" y="533" type="line"/>
      <point x="626" y="616" type="line"/>
      <point x="631" y="653" type="line"/>
      <point x="640" y="723" type="line"/>
      <point x="184" y="723" type="line"/>
      <point x="108" y="723" type="line"/>
      <point x="101" y="664" type="line" smooth="yes"/>
      <point x="99" y="647"/>
      <point x="106" y="637"/>
      <point x="122" y="633" type="curve"/>
      <point x="130" y="632"/>
      <point x="129" y="632"/>
      <point x="171" y="624" type="curve"/>
      <point x="107" y="99" type="line"/>
      <point x="63" y="91"/>
      <point x="63" y="91"/>
      <point x="55" y="90" type="curve"/>
      <point x="38" y="86"/>
      <point x="28" y="76"/>
      <point x="26" y="59" type="curve" smooth="yes"/>
      <point x="19" y="0" type="line"/>
      <point x="95" y="0" type="line"/>
      <point x="431" y="0" type="line"/>
      <point x="407" y="-14"/>
      <point x="387" y="-29"/>
      <point x="373" y="-46" type="curve" smooth="yes"/>
      <point x="359" y="-63"/>
      <point x="350" y="-81"/>
      <point x="348" y="-99" type="curve" smooth="yes"/>
      <point x="345" y="-121"/>
      <point x="352" y="-138"/>
      <point x="368" y="-152" type="curve" smooth="yes"/>
      <point x="384" y="-166"/>
      <point x="408" y="-172"/>
      <point x="441" y="-172" type="curve" smooth="yes"/>
      <point x="459" y="-172"/>
      <point x="477" y="-170"/>
      <point x="494" y="-165" type="curve" smooth="yes"/>
      <point x="511" y="-160"/>
      <point x="526" y="-154"/>
      <point x="538" y="-147" type="curve"/>
    </contour>
  </outline>
</glyph>
<glyph name="Nacute" format="1">
  <advance width="888"/>
  <unicode hex="0143"/>
  <note>
    Nacute
  </note>
  <outline>
    <contour>
      <point x="794" y="723" type="line"/>
      <point x="675" y="723" type="line"/>
      <point x="585" y="723" type="line"/>
      <point x="578" y="664" type="line" smooth="yes"/>
      <point x="576" y="647"/>
      <point x="583" y="637"/>
      <point x="599" y="633" type="curve"/>
      <point x="601" y="633"/>
      <point x="622" y="630"/>
      <point x="663" y="624" type="curve"/>
      <point x="621" y="284" type="line" smooth="yes"/>
      <point x="620" y="274"/>
      <point x="619" y="263"/>
      <point x="618" y="252" type="curve" smooth="yes"/>
      <point x="617" y="241"/>
      <point x="617" y="230"/>
      <point x="617" y="218" type="curve"/>
      <point x="296" y="701" type="line"/>
      <point x="293" y="706"/>
      <point x="291" y="710"/>
      <point x="288" y="713" type="curve" smooth="yes"/>
      <point x="285" y="716"/>
      <point x="282" y="718"/>
      <point x="279" y="719" type="curve"/>
      <point x="276" y="721"/>
      <point x="273" y="722"/>
      <point x="269" y="722" type="curve" smooth="yes"/>
      <point x="265" y="722"/>
      <point x="260" y="723"/>
      <point x="254" y="723" type="curve" smooth="yes"/>
      <point x="184" y="723" type="line"/>
      <point x="108" y="723" type="line"/>
      <point x="101" y="664" type="line" smooth="yes"/>
      <point x="99" y="647"/>
      <point x="106" y="637"/>
      <point x="122" y="633" type="curve"/>
      <point x="123" y="633"/>
      <point x="125" y="632"/>
      <point x="128" y="632" type="curve" smooth="yes"/>
      <point x="131" y="632"/>
      <point x="135" y="630"/>
      <point x="142" y="629" type="curve" smooth="yes"/>
      <point x="149" y="628"/>
      <point x="159" y="626"/>
      <point x="171" y="624" type="curve"/>
      <point x="107" y="99" type="line"/>
      <point x="94" y="97"/>
      <point x="84" y="95"/>
      <point x="77" y="94" type="curve" smooth="yes"/>
      <point x="70" y="93"/>
      <point x="64" y="92"/>
      <point x="61" y="91" type="curve" smooth="yes"/>
      <point x="58" y="90"/>
      <point x="56" y="90"/>
      <point x="55" y="90" type="curve"/>
      <point x="38" y="86"/>
      <point x="28" y="76"/>
      <point x="26" y="59" type="curve" smooth="yes"/>
      <point x="19" y="0" type="line"/>
      <point x="95" y="0" type="line"/>
      <point x="213" y="0" type="line"/>
      <point x="303" y="0" type="line"/>
      <point x="311" y="59" type="line" smooth="yes"/>
      <point x="313" y="76"/>
      <point x="305" y="86"/>
      <point x="289" y="90" type="curve"/>
      <point x="287" y="90"/>
      <point x="266" y="93"/>
      <point x="225" y="99" type="curve"/>
      <point x="268" y="444" type="line" smooth="yes"/>
      <point x="269" y="453"/>
      <point x="270" y="463"/>
      <point x="271" y="473" type="curve" smooth="yes"/>
      <point x="272" y="483"/>
      <point x="272" y="493"/>
      <point x="272" y="504" type="curve"/>
      <point x="591" y="23" type="line" smooth="yes"/>
      <point x="597" y="14"/>
      <point x="602" y="8"/>
      <point x="609" y="5" type="curve" smooth="yes"/>
      <point x="616" y="2"/>
      <point x="624" y="0"/>
      <point x="635" y="0" type="curve" smooth="yes"/>
      <point x="705" y="0" type="line"/>
      <point x="781" y="624" type="line"/>
      <point x="794" y="626"/>
      <point x="805" y="628"/>
      <point x="812" y="629" type="curve" smooth="yes"/>
      <point x="819" y="630"/>
      <point x="824" y="632"/>
      <point x="827" y="632" type="curve" smooth="yes"/>
      <point x="830" y="632"/>
      <point x="831" y="633"/>
      <point x="833" y="633" type="curve"/>
      <point x="850" y="637"/>
      <point x="860" y="647"/>
      <point x="862" y="664" type="curve" smooth="yes"/>
      <point x="869" y="723" type="line"/>
    </contour>
    <contour>
      <point x="710" y="896" type="line"/>
      <point x="573" y="896" type="line" smooth="yes"/>
      <point x="566" y="896"/>
      <point x="561" y="895"/>
      <point x="556" y="895" type="curve" smooth="yes"/>
      <point x="551" y="895"/>
      <point x="547" y="894"/>
      <point x="543" y="892" type="curve"/>
      <point x="539" y="891"/>
      <point x="535" y="889"/>
      <point x="531" y="886" type="curve" smooth="yes"/>
      <point x="527" y="883"/>
      <point x="523" y="879"/>
      <point x="519" y="875" type="curve"/>
      <point x="408" y="774" type="line"/>
      <point x="505" y="774" type="line" smooth="yes"/>
      <point x="510" y="774"/>
      <point x="514" y="775"/>
      <point x="518" y="775" type="curve" smooth="yes"/>
      <point x="522" y="775"/>
      <point x="525" y="776"/>
      <point x="528" y="777" type="curve" smooth="yes"/>
      <point x="531" y="778"/>
      <point x="535" y="779"/>
      <point x="538" y="781" type="curve" smooth="yes"/>
      <point x="541" y="783"/>
      <point x="545" y="784"/>
      <point x="549" y="787" type="curve"/>
    </contour>
  </outline>
</glyph>
<glyph name="eng" format="1">
  <advance width="591"/>
  <unicode hex="014B"/>
  <outline>
    <contour>
      <point x="527" y="326" type="line"/>
      <point x="531" y="355"/>
      <point x="530" y="381"/>
      <point x="525" y="405" type="curve" smooth="yes"/>
      <point x="520" y="429"/>
      <point x="512" y="450"/>
      <point x="500" y="467" type="curve" smooth="yes"/>
      <point x="488" y="484"/>
      <point x="471" y="498"/>
      <point x="451" y="507" type="curve" smooth="yes"/>
      <point x="430" y="517"/>
      <point x="406" y="521"/>
      <point x="378" y="521" type="curve" smooth="yes"/>
      <point x="361" y="521"/>
      <point x="344" y="519"/>
      <point x="329" y="516" type="curve" smooth="yes"/>
      <point x="314" y="513"/>
      <point x="300" y="507"/>
      <point x="286" y="501" type="curve" smooth="yes"/>
      <point x="272" y="495"/>
      <point x="260" y="488"/>
      <point x="247" y="479" type="curve" smooth="yes"/>
      <point x="234" y="470"/>
      <point x="223" y="461"/>
      <point x="211" y="450" type="curve"/>
      <point x="207" y="490" type="line"/>
      <point x="204" y="505"/>
      <point x="194" y="513"/>
      <point x="178" y="513" type="curve" smooth="yes"/>
      <point x="103" y="513" type="line"/>
      <point x="27" y="513" type="line"/>
      <point x="20" y="454" type="line" smooth="yes"/>
      <point x="18" y="437"/>
      <point x="25" y="427"/>
      <point x="41" y="423" type="curve"/>
      <point x="42" y="423"/>
      <point x="44" y="423"/>
      <point x="47" y="422" type="curve"/>
      <point x="50" y="422"/>
      <point x="55" y="420"/>
      <point x="62" y="419" type="curve" smooth="yes"/>
      <point x="69" y="418"/>
      <point x="79" y="416"/>
      <point x="91" y="414" type="curve"/>
      <point x="58" y="149" type="line"/>
      <point x="40" y="0" type="line"/>
      <point x="163" y="0" type="line"/>
      <point x="176" y="99" type="line"/>
      <point x="186" y="184" type="line"/>
      <point x="189" y="208" type="line"/>
      <point x="209" y="371" type="line"/>
      <point x="228" y="388"/>
      <point x="247" y="400"/>
      <point x="267" y="410" type="curve" smooth="yes"/>
      <point x="287" y="420"/>
      <point x="308" y="425"/>
      <point x="329" y="425" type="curve" smooth="yes"/>
      <point x="358" y="425"/>
      <point x="379" y="416"/>
      <point x="391" y="399" type="curve" smooth="yes"/>
      <point x="403" y="382"/>
      <point x="407" y="357"/>
      <point x="403" y="326" type="curve" smooth="yes"/>
      <point x="363" y="0" type="line"/>
      <point x="487" y="0" type="line"/>
    </contour>
    <contour>
      <point x="403" y="326" type="line"/>
      <point x="361" y="-17" type="line" smooth="yes"/>
      <point x="355" y="-70"/>
      <point x="339" y="-88"/>
      <point x="287" y="-88" type="curve" smooth="yes"/>
      <point x="275" y="-88"/>
      <point x="266" y="-89"/>
      <point x="262" y="-91" type="curve" smooth="yes"/>
      <point x="258" y="-93"/>
      <point x="254" y="-97"/>
      <point x="252" y="-104" type="curve"/>
      <point x="240" y="-170" type="line"/>
      <point x="250" y="-173"/>
      <point x="260" y="-177"/>
      <point x="270" y="-178" type="curve" smooth="yes"/>
      <point x="280" y="-179"/>
      <point x="290" y="-180"/>
      <point x="302" y="-180" type="curve" smooth="yes"/>
      <point x="332" y="-180"/>
      <point x="358" y="-175"/>
      <point x="380" y="-167" type="curve" smooth="yes"/>
      <point x="402" y="-159"/>
      <point x="420" y="-147"/>
      <point x="435" y="-132" type="curve" smooth="yes"/>
      <point x="450" y="-117"/>
      <point x="461" y="-100"/>
      <point x="469" y="-80" type="curve" smooth="yes"/>
      <point x="477" y="-60"/>
      <point x="482" y="-39"/>
      <point x="485" y="-17" type="curve" smooth="yes"/>
      <point x="527" y="326" type="line"/>
    </contour>
    <contour>
      <point x="296" y="513" type="move" name="top"/>
    </contour>
    <contour>
      <point x="296" y="0" type="move" name="bottom"/>
    </contour>
  </outline>
</glyph>
<glyph name="Zdotaccent" format="1">
  <advance width="685"/>
  <unicode hex="017B"/>
  <note>
    Zdotaccent
  </note>
  <outline>
    <contour>
      <point x="642" y="631" type="line"/>
      <point x="652" y="644"/>
      <point x="658" y="658"/>
      <point x="660" y="673" type="curve" smooth="yes"/>
      <point x="666" y="723" type="line"/>
      <point x="131" y="723" type="line"/>
      <point x="107" y="526" type="line"/>
      <point x="160" y="526" type="line" smooth="yes"/>
      <point x="173" y="526"/>
      <point x="182" y="533"/>
      <point x="186" y="545" type="curve" smooth="yes"/>
      <point x="187" y="548"/>
      <point x="193" y="571"/>
      <point x="204" y="616" type="curve"/>
      <point x="479" y="616" type="line"/>
      <point x="42" y="90" type="line" smooth="yes"/>
      <point x="38" y="85"/>
      <point x="34" y="78"/>
      <point x="31" y="72" type="curve" smooth="yes"/>
      <point x="28" y="66"/>
      <point x="27" y="60"/>
      <point x="26" y="53" type="curve" smooth="yes"/>
      <point x="19" y="0" type="line"/>
      <point x="568" y="0" type="line"/>
      <point x="582" y="107" type="line"/>
      <point x="592" y="195" type="line"/>
      <point x="539" y="195" type="line" smooth="yes"/>
      <point x="526" y="195"/>
      <point x="518" y="188"/>
      <point x="514" y="176" type="curve" smooth="yes"/>
      <point x="513" y="173"/>
      <point x="508" y="150"/>
      <point x="497" y="107" type="curve"/>
      <point x="207" y="107" type="line"/>
    </contour>
    <contour>
      <point x="493" y="858"/>
      <point x="492" y="868"/>
      <point x="489" y="877" type="curve" smooth="yes"/>
      <point x="486" y="886"/>
      <point x="481" y="894"/>
      <point x="475" y="901" type="curve" smooth="yes"/>
      <point x="469" y="908"/>
      <point x="462" y="913"/>
      <point x="453" y="917" type="curve" smooth="yes"/>
      <point x="444" y="921"/>
      <point x="434" y="923"/>
      <point x="424" y="923" type="curve" smooth="yes"/>
      <point x="414" y="923"/>
      <point x="404" y="921"/>
      <point x="395" y="917" type="curve" smooth="yes"/>
      <point x="386" y="913"/>
      <point x="377" y="908"/>
      <point x="369" y="901" type="curve" smooth="yes"/>
      <point x="361" y="894"/>
      <point x="355" y="886"/>
      <point x="350" y="877" type="curve" smooth="yes"/>
      <point x="345" y="868"/>
      <point x="342" y="858"/>
      <point x="341" y="848" type="curve" smooth="yes"/>
      <point x="340" y="838"/>
      <point x="340" y="828"/>
      <point x="343" y="819" type="curve" smooth="yes"/>
      <point x="346" y="810"/>
      <point x="350" y="803"/>
      <point x="356" y="796" type="curve" smooth="yes"/>
      <point x="362" y="789"/>
      <point x="369" y="784"/>
      <point x="378" y="780" type="curve" smooth="yes"/>
      <point x="387" y="776"/>
      <point x="395" y="774"/>
      <point x="405" y="774" type="curve" smooth="yes"/>
      <point x="415" y="774"/>
      <point x="426" y="776"/>
      <point x="436" y="780" type="curve" smooth="yes"/>
      <point x="446" y="784"/>
      <point x="454" y="789"/>
      <point x="462" y="796" type="curve" smooth="yes"/>
      <point x="470" y="803"/>
      <point x="477" y="810"/>
      <point x="482" y="819" type="curve" smooth="yes"/>
      <point x="487" y="828"/>
      <point x="491" y="838"/>
      <point x="492" y="848" type="curve" smooth="yes"/>
    </contour>
  </outline>
</glyph>
<glyph name="zdotaccent" format="1">
  <advance width="504"/>
  <unicode hex="017C"/>
  <note>
    zdotaccent
  </note>
  <outline>
    <contour>
      <point x="445" y="168" type="line"/>
      <point x="433" y="168" type="line"/>
      <point x="392" y="168" type="line" smooth="yes"/>
      <point x="379" y="168"/>
      <point x="370" y="161"/>
      <point x="366" y="149" type="curve"/>
      <point x="365" y="144"/>
      <point x="362" y="132"/>
      <point x="354" y="95" type="curve"/>
      <point x="174" y="95" type="line"/>
      <point x="458" y="416" type="line" smooth="yes"/>
      <point x="463" y="422"/>
      <point x="467" y="429"/>
      <point x="471" y="437" type="curve" smooth="yes"/>
      <point x="475" y="445"/>
      <point x="478" y="453"/>
      <point x="479" y="462" type="curve" smooth="yes"/>
      <point x="485" y="513" type="line"/>
      <point x="96" y="513" type="line"/>
      <point x="96" y="507" type="line"/>
      <point x="96" y="507" type="line"/>
      <point x="76" y="349" type="line"/>
      <point x="81" y="349" type="line"/>
      <point x="93" y="349" type="line"/>
      <point x="134" y="349" type="line" smooth="yes"/>
      <point x="147" y="349"/>
      <point x="155" y="356"/>
      <point x="159" y="368" type="curve"/>
      <point x="160" y="372"/>
      <point x="164" y="384"/>
      <point x="172" y="418" type="curve"/>
      <point x="333" y="418" type="line"/>
      <point x="47" y="94" type="line"/>
      <point x="40" y="87"/>
      <point x="36" y="80"/>
      <point x="32" y="72" type="curve" smooth="yes"/>
      <point x="28" y="64"/>
      <point x="26" y="58"/>
      <point x="25" y="52" type="curve"/>
      <point x="19" y="0" type="line"/>
      <point x="413" y="0" type="line"/>
      <point x="415" y="0" type="line"/>
      <point x="429" y="0" type="line"/>
      <point x="450" y="168" type="line"/>
    </contour>
    <contour>
      <point x="396" y="675"/>
      <point x="395" y="685"/>
      <point x="392" y="695" type="curve" smooth="yes"/>
      <point x="389" y="705"/>
      <point x="384" y="713"/>
      <point x="378" y="720" type="curve" smooth="yes"/>
      <point x="372" y="727"/>
      <point x="363" y="733"/>
      <point x="354" y="737" type="curve" smooth="yes"/>
      <point x="345" y="741"/>
      <point x="335" y="743"/>
      <point x="324" y="743" type="curve" smooth="yes"/>
      <point x="313" y="743"/>
      <point x="303" y="741"/>
      <point x="293" y="737" type="curve" smooth="yes"/>
      <point x="283" y="733"/>
      <point x="274" y="727"/>
      <point x="266" y="720" type="curve" smooth="yes"/>
      <point x="258" y="713"/>
      <point x="252" y="705"/>
      <point x="247" y="695" type="curve" smooth="yes"/>
      <point x="242" y="685"/>
      <point x="238" y="675"/>
      <point x="237" y="664" type="curve" smooth="yes"/>
      <point x="236" y="653"/>
      <point x="236" y="644"/>
      <point x="239" y="634" type="curve" smooth="yes"/>
      <point x="242" y="624"/>
      <point x="247" y="616"/>
      <point x="253" y="609" type="curve" smooth="yes"/>
      <point x="259" y="602"/>
      <point x="266" y="597"/>
      <point x="275" y="593" type="curve" smooth="yes"/>
      <point x="284" y="589"/>
      <point x="294" y="586"/>
      <point x="305" y="586" type="curve" smooth="yes"/>
      <point x="316" y="586"/>
      <point x="327" y="589"/>
      <point x="337" y="593" type="curve" smooth="yes"/>
      <point x="347" y="597"/>
      <point x="356" y="602"/>
      <point x="364" y="609" type="curve" smooth="yes"/>
      <point x="372" y="616"/>
      <point x="378" y="624"/>
      <point x="384" y="634" type="curve" smooth="yes"/>
      <point x="390" y="644"/>
      <point x="394" y="653"/>
      <point x="395" y="664" type="curve" smooth="yes"/>
    </contour>
  </outline>
</glyph>
<glyph name="breve" format="1">
  <advance width="362"/>
  <unicode hex="02D8"/>
  <note>
    breve
  </note>
  <outline>
    <contour>
      <point x="195" y="580"/>
      <point x="219" y="584"/>
      <point x="239" y="592" type="curve" smooth="yes"/>
      <point x="259" y="600"/>
      <point x="277" y="609"/>
      <point x="290" y="622" type="curve" smooth="yes"/>
      <point x="303" y="635"/>
      <point x="314" y="651"/>
      <point x="321" y="668" type="curve" smooth="yes"/>
      <point x="328" y="685"/>
      <point x="333" y="704"/>
      <point x="335" y="723" type="curve"/>
      <point x="249" y="723" type="line"/>
      <point x="248" y="713"/>
      <point x="246" y="704"/>
      <point x="243" y="696" type="curve" smooth="yes"/>
      <point x="240" y="688"/>
      <point x="236" y="682"/>
      <point x="230" y="676" type="curve" smooth="yes"/>
      <point x="224" y="670"/>
      <point x="218" y="666"/>
      <point x="209" y="663" type="curve" smooth="yes"/>
      <point x="200" y="660"/>
      <point x="189" y="658"/>
      <point x="176" y="658" type="curve" smooth="yes"/>
      <point x="163" y="658"/>
      <point x="153" y="660"/>
      <point x="145" y="663" type="curve" smooth="yes"/>
      <point x="137" y="666"/>
      <point x="131" y="670"/>
      <point x="127" y="676" type="curve" smooth="yes"/>
      <point x="123" y="682"/>
      <point x="120" y="688"/>
      <point x="119" y="696" type="curve" smooth="yes"/>
      <point x="118" y="704"/>
      <point x="119" y="713"/>
      <point x="120" y="723" type="curve"/>
      <point x="33" y="723" type="line"/>
      <point x="31" y="704"/>
      <point x="31" y="685"/>
      <point x="34" y="668" type="curve" smooth="yes"/>
      <point x="37" y="651"/>
      <point x="44" y="635"/>
      <point x="54" y="622" type="curve" smooth="yes"/>
      <point x="64" y="609"/>
      <point x="78" y="600"/>
      <point x="96" y="592" type="curve" smooth="yes"/>
      <point x="114" y="584"/>
      <point x="138" y="580"/>
      <point x="167" y="580" type="curve" smooth="yes"/>
    </contour>
  </outline>
</glyph>
<glyph name="circumflexcomb" format="1">
  <advance width="375"/>
  <unicode hex="0302"/>
  <outline>
    <component base="circumflex" xOffset="28"/>
    <contour>
      <point x="228" y="723" type="move" name="top"/>
    </contour>
    <contour>
      <point x="228" y="513" type="move" name="_top"/>
    </contour>
  </outline>
</glyph>
<glyph name="hungarumlautcomb" format="1">
  <advance width="396"/>
  <unicode hex="030B"/>
  <outline>
    <component base="hungarumlaut" xOffset="28"/>
    <contour>
      <point x="247" y="731" type="move" name="top"/>
    </contour>
    <contour>
      <point x="247" y="513" type="move" name="_top"/>
    </contour>
  </outline>
</glyph>
<glyph name="ogonekcomb" format="1">
  <advance width="226"/>
  <unicode hex="0328"/>
  <outline>
    <component base="ogonek" xOffset="-60"/>
    <contour>
      <point x="161" y="10" type="move" name="_ogonek"/>
    </contour>
  </outline>
</glyph>
<glyph name="endash" format="1">
  <advance width="477"/>
  <unicode hex="2013"/>
  <note>
    endash
  </note>
  <outline>
    <contour>
      <point x="41" y="344" type="line"/>
      <point x="30" y="256" type="line"/>
      <point x="436" y="256" type="line"/>
      <point x="446" y="344" type="line"/>
    </contour>
  </outline>
</glyph>
<glyph name="emdash" format="1">
  <advance width="750"/>
  <unicode hex="2014"/>
  <note>
    emdash
  </note>
  <outline>
    <contour>
      <point x="41" y="344" type="line"/>
      <point x="30" y="256" type="line"/>
      <point x="708" y="256" type="line"/>
      <point x="719" y="344" type="line"/>
    </contour>
  </outline>
</glyph>
<glyph name="daggerdbl" format="1">
  <advance width="581"/>
  <unicode hex="2021"/>
  <note>
    daggerdbl
  </note>
  <outline>
    <contour>
      <point x="57" y="416" type="line"/>
      <point x="258" y="416" type="line"/>
      <point x="227" y="156" type="line"/>
      <point x="26" y="156" type="line"/>
      <point x="20" y="114" type="line" smooth="yes"/>
      <point x="19" y="107"/>
      <point x="20" y="100"/>
      <point x="21" y="94" type="curve" smooth="yes"/>
      <point x="22" y="88"/>
      <point x="26" y="83"/>
      <point x="30" y="78" type="curve" smooth="yes"/>
      <point x="34" y="73"/>
      <point x="39" y="69"/>
      <point x="46" y="66" type="curve" smooth="yes"/>
      <point x="53" y="63"/>
      <point x="61" y="61"/>
      <point x="71" y="61" type="curve" smooth="yes"/>
      <point x="92" y="61"/>
      <point x="116" y="64"/>
      <point x="141" y="69" type="curve" smooth="yes"/>
      <point x="166" y="74"/>
      <point x="192" y="78"/>
      <point x="217" y="82" type="curve"/>
      <point x="172" y="-162" type="line"/>
      <point x="189" y="-173"/>
      <point x="210" y="-178"/>
      <point x="234" y="-178" type="curve" smooth="yes"/>
      <point x="246" y="-178"/>
      <point x="258" y="-177"/>
      <point x="269" y="-174" type="curve" smooth="yes"/>
      <point x="280" y="-171"/>
      <point x="291" y="-167"/>
      <point x="300" y="-162" type="curve"/>
      <point x="314" y="82" type="line"/>
      <point x="339" y="78"/>
      <point x="363" y="74"/>
      <point x="387" y="69" type="curve" smooth="yes"/>
      <point x="411" y="64"/>
      <point x="433" y="61"/>
      <point x="454" y="61" type="curve" smooth="yes"/>
      <point x="464" y="61"/>
      <point x="473" y="63"/>
      <point x="481" y="66" type="curve" smooth="yes"/>
      <point x="489" y="69"/>
      <point x="495" y="73"/>
      <point x="500" y="78" type="curve" smooth="yes"/>
      <point x="505" y="83"/>
      <point x="510" y="88"/>
      <point x="513" y="94" type="curve" smooth="yes"/>
      <point x="516" y="100"/>
      <point x="518" y="107"/>
      <point x="519" y="114" type="curve" smooth="yes"/>
      <point x="524" y="156" type="line"/>
      <point x="323" y="156" type="line"/>
      <point x="354" y="416" type="line"/>
      <point x="556" y="416" type="line"/>
      <point x="561" y="456" type="line" smooth="yes"/>
      <point x="562" y="463"/>
      <point x="562" y="470"/>
      <point x="560" y="476" type="curve" smooth="yes"/>
      <point x="558" y="482"/>
      <point x="556" y="489"/>
      <point x="552" y="494" type="curve" smooth="yes"/>
      <point x="548" y="499"/>
      <point x="542" y="503"/>
      <point x="535" y="506" type="curve" smooth="yes"/>
      <point x="528" y="509"/>
      <point x="520" y="510"/>
      <point x="510" y="510" type="curve" smooth="yes"/>
      <point x="489" y="510"/>
      <point x="465" y="507"/>
      <point x="440" y="502" type="curve" smooth="yes"/>
      <point x="415" y="497"/>
      <point x="388" y="492"/>
      <point x="363" y="488" type="curve"/>
      <point x="409" y="732" type="line"/>
      <point x="401" y="737"/>
      <point x="392" y="741"/>
      <point x="381" y="744" type="curve" smooth="yes"/>
      <point x="370" y="747"/>
      <point x="359" y="748"/>
      <point x="347" y="748" type="curve" smooth="yes"/>
      <point x="323" y="748"/>
      <point x="301" y="743"/>
      <point x="281" y="732" type="curve"/>
      <point x="267" y="488" type="line"/>
      <point x="242" y="492"/>
      <point x="218" y="497"/>
      <point x="194" y="502" type="curve" smooth="yes"/>
      <point x="170" y="507"/>
      <point x="148" y="510"/>
      <point x="127" y="510" type="curve" smooth="yes"/>
      <point x="117" y="510"/>
      <point x="108" y="509"/>
      <point x="100" y="506" type="curve" smooth="yes"/>
      <point x="92" y="503"/>
      <point x="86" y="499"/>
      <point x="81" y="494" type="curve" smooth="yes"/>
      <point x="76" y="489"/>
      <point x="71" y="482"/>
      <point x="68" y="476" type="curve" smooth="yes"/>
      <point x="65" y="470"/>
      <point x="63" y="463"/>
      <point x="62" y="456" type="curve" smooth="yes"/>
    </contour>
  </outline>
</glyph>
<glyph name="guilsinglleft" format="1">
  <advance width="256"/>
  <unicode hex="2039"/>
  <note>
    guilsinglleft
  </note>
  <outline>
    <contour>
      <point x="24" y="261" type="line"/>
      <point x="128" y="63" type="line"/>
      <point x="171" y="82" type="line" smooth="yes"/>
      <point x="184" y="88"/>
      <point x="192" y="96"/>
      <point x="193" y="108" type="curve"/>
      <point x="194" y="115"/>
      <point x="192" y="123"/>
      <point x="189" y="130" type="curve" smooth="yes"/>
      <point x="134" y="248" type="line" smooth="yes"/>
      <point x="130" y="257"/>
      <point x="126" y="264"/>
      <point x="121" y="269" type="curve"/>
      <point x="128" y="274"/>
      <point x="134" y="281"/>
      <point x="140" y="290" type="curve" smooth="yes"/>
      <point x="223" y="408" type="line" smooth="yes"/>
      <point x="228" y="415"/>
      <point x="231" y="422"/>
      <point x="232" y="429" type="curve" smooth="yes"/>
      <point x="233" y="435"/>
      <point x="232" y="439"/>
      <point x="230" y="444" type="curve" smooth="yes"/>
      <point x="228" y="449"/>
      <point x="222" y="453"/>
      <point x="216" y="456" type="curve" smooth="yes"/>
      <point x="178" y="475" type="line"/>
      <point x="26" y="277" type="line"/>
    </contour>
  </outline>
</glyph>
<glyph name="lessequal" format="1">
  <advance width="509"/>
  <unicode hex="2264"/>
  <note>
    lessequal
  </note>
  <outline>
    <contour>
      <point x="68" y="420" type="line"/>
      <point x="62" y="370" type="line"/>
      <point x="434" y="179" type="line"/>
      <point x="444" y="263" type="line" smooth="yes"/>
      <point x="445" y="270"/>
      <point x="444" y="276"/>
      <point x="441" y="282" type="curve" smooth="yes"/>
      <point x="438" y="288"/>
      <point x="431" y="293"/>
      <point x="421" y="298" type="curve" smooth="yes"/>
      <point x="256" y="378" type="line" smooth="yes"/>
      <point x="248" y="382"/>
      <point x="239" y="384"/>
      <point x="230" y="387" type="curve" smooth="yes"/>
      <point x="221" y="390"/>
      <point x="211" y="393"/>
      <point x="201" y="395" type="curve"/>
      <point x="212" y="397"/>
      <point x="221" y="400"/>
      <point x="231" y="402" type="curve" smooth="yes"/>
      <point x="241" y="404"/>
      <point x="251" y="407"/>
      <point x="260" y="411" type="curve" smooth="yes"/>
      <point x="445" y="490" type="line" smooth="yes"/>
      <point x="456" y="495"/>
      <point x="465" y="500"/>
      <point x="469" y="506" type="curve" smooth="yes"/>
      <point x="473" y="512"/>
      <point x="476" y="518"/>
      <point x="477" y="525" type="curve" smooth="yes"/>
      <point x="487" y="609" type="line"/>
    </contour>
    <contour>
      <point x="32" y="131" type="line"/>
      <point x="21" y="40" type="line"/>
      <point x="417" y="40" type="line"/>
      <point x="428" y="131" type="line"/>
    </contour>
  </outline>
</glyph>
